<?xml version="1.0" encoding="UTF-8" standalone="no"?>
<!DOCTYPE svg PUBLIC "-//W3C//DTD SVG 1.1//EN" "http://www.w3.org/Graphics/SVG/1.1/DTD/svg11.dtd">
<svg width="800px" height="160px" version="1.1" xmlns="http://www.w3.org/2000/svg" xmlns:xlink="http://www.w3.org/1999/xlink" xml:space="preserve" xmlns:serif="http://www.serif.com/" style="fill-rule:evenodd;clip-rule:evenodd;stroke-linejoin:round;stroke-miterlimit:2;">
    <g transform="matrix(0.374181,0,0,0.0847907,-43.0309,-14.0753)">
        <rect x="115" y="166" width="2138" height="1887" style="fill:rgb(69,170,242);"/>
    </g>
    <g id="Engine" transform="matrix(0.029644,0,0,0.0296983,30.9211,15.5902)">
        <g transform="matrix(82.1464,0,0,82.1464,-1156.54,-67.4928)">
            <path d="M56.284,36.586C52.548,34.295 47.53,31.242 44.409,29.387C44.488,29.906 44.43,30.518 44.2,31.136C43.892,31.963 43.349,32.613 42.747,32.874C42.561,32.955 42.374,32.995 42.194,32.995L41.976,32.952C41.484,33.65 40.92,34.223 40.317,34.645C40.418,35.021 40.522,35.4 40.627,35.787L40.848,36.59C40.98,37.077 41.155,37.724 41.353,38.454L41.376,38.386C42.272,35.977 43.834,34.092 45.554,33.346C46.478,32.945 47.39,32.91 48.19,33.244L48.447,33.347C49.258,33.669 49.762,33.878 49.946,33.99L49.947,33.99C51.261,34.539 52.071,36.017 52.272,37.884C52.575,37.561 52.903,37.296 53.252,37.145C53.712,36.945 54.169,36.928 54.573,37.097L56.083,37.63L56.296,37.693L56.345,37.722L56.368,37.731L56.411,37.762C56.554,37.837 56.683,37.934 56.798,38.05C57.091,37.827 57.389,37.639 57.69,37.484C57.053,37.089 56.407,36.667 56.284,36.586Z" style="fill:white;fill-rule:nonzero;stroke:rgb(95,39,205);stroke-width:0.01px;"/>
        </g>
        <g transform="matrix(82.1464,0,0,82.1464,-1156.54,-67.4928)">
            <path d="M42.786,22.148C42.919,21.799 43.171,21.522 43.478,21.388C43.722,21.282 43.983,21.274 44.215,21.366C44.752,21.58 44.99,22.279 44.745,22.923C44.612,23.271 44.36,23.548 44.053,23.683C43.922,23.74 43.786,23.769 43.652,23.769C43.537,23.769 43.423,23.748 43.316,23.705C42.779,23.49 42.542,22.791 42.786,22.148ZM38.807,20.915L38.762,21.018C38.44,21.33 38.248,21.471 38.076,21.518L38.055,21.522C37.957,21.546 37.755,21.568 37.488,21.588C37.299,21.603 37.079,21.616 36.844,21.628L40.85,23.027C41.135,23.046 41.414,23.095 41.677,23.205L41.9,23.32C43.136,23.987 43.797,25.65 43.748,27.631L55.773,35.011C55.433,34.114 55.321,32.994 55.46,31.799L55.403,31.772L55.284,31.714C54.999,31.576 54.752,31.454 54.547,31.297L49.485,28.998C49.343,28.968 48.915,28.683 48.934,27.029C48.943,26.382 48.944,25.52 48.943,24.717C45.772,22.224 44.703,21.346 44.343,20.977C42.721,20.267 40.912,19.51 40.666,19.461C40.368,19.424 38.619,19.53 38.3,19.576C38.249,19.643 38.116,20.057 38.067,20.316C38.178,20.34 38.344,20.358 38.486,20.358C38.597,20.358 38.693,20.408 38.762,20.484L38.771,20.488L38.78,20.511L38.854,20.696L38.839,20.841L38.807,20.915Z" style="fill:white;fill-rule:nonzero;stroke:rgb(95,39,205);stroke-width:0.01px;"/>
        </g>
        <g transform="matrix(82.1464,0,0,82.1464,-1156.54,-67.4928)">
            <path d="M67.513,23.424L68.232,23.687L68.244,23.698L68.335,23.715C68.627,23.838 68.786,24.163 68.825,24.562L69.063,23.644L68.882,23.608L68.825,23.619L68.749,23.607C68.712,23.596 67.929,23.345 67.557,23.203L67.513,23.424Z" style="fill:white;fill-rule:nonzero;stroke:rgb(95,39,205);stroke-width:0.01px;"/>
        </g>
        <g transform="matrix(82.1464,0,0,82.1464,-1156.54,-67.4928)">
            <path d="M67.859,26.509C67.751,26.556 67.641,26.58 67.536,26.58L67.367,26.546L67.282,26.531L66.92,26.4L66.25,29.768L66.249,29.769C66.318,30.594 66.255,31.498 66.039,32.426C65.945,32.826 65.824,33.229 65.674,33.631L65.674,33.632C65.201,34.905 64.507,36.004 63.698,36.804C63.239,37.257 62.743,37.608 62.23,37.846C63.078,38.138 63.875,38.399 63.888,38.403L63.894,38.407L63.907,38.411C64.33,38.587 64.696,38.871 65.007,39.233L68.461,25.957C68.292,26.212 68.085,26.412 67.859,26.509Z" style="fill:white;fill-rule:nonzero;stroke:rgb(95,39,205);stroke-width:0.01px;"/>
        </g>
        <g transform="matrix(82.1464,0,0,82.1464,-1156.54,-67.4928)">
            <path d="M68.7,36.083C69.35,34.343 70.487,32.975 71.748,32.402L68.912,31.723L66.657,40.296L68.692,41.227C68.022,39.957 67.969,38.038 68.7,36.083Z" style="fill:white;fill-rule:nonzero;stroke:rgb(95,39,205);stroke-width:0.01px;"/>
        </g>
        <g transform="matrix(82.1464,0,0,82.1464,-1156.54,-67.4928)">
            <path d="M57.983,32.487L57.869,32.534L57.808,32.536C57.461,32.536 56.629,32.285 55.937,32.006C55.794,33.39 56.009,34.641 56.544,35.484L58.526,36.701C57.923,35.642 57.718,34.122 57.983,32.487Z" style="fill:white;fill-rule:nonzero;stroke:rgb(95,39,205);stroke-width:0.01px;"/>
        </g>
        <g transform="matrix(82.1464,0,0,82.1464,-1156.54,-67.4928)">
            <path d="M60.808,25.51C60.465,25.51 60.105,25.589 59.739,25.748C59.259,25.956 58.79,26.294 58.35,26.727L58.35,31.005C58.39,30.884 58.427,30.763 58.472,30.642C59.23,28.605 60.551,27.012 62.008,26.38C62.252,26.274 62.495,26.208 62.735,26.162C62.269,25.956 61.808,25.753 61.596,25.664C61.349,25.561 61.085,25.51 60.808,25.51Z" style="fill:white;fill-rule:nonzero;stroke:rgb(95,39,205);stroke-width:0.01px;"/>
        </g>
        <g transform="matrix(82.1464,0,0,82.1464,-1156.54,-67.4928)">
            <path d="M61.782,37.01C61.632,37.111 61.481,37.196 61.329,37.275C61.232,37.324 61.137,37.382 61.04,37.422L61.161,37.467L61.414,37.56L61.491,37.587C61.639,37.548 61.789,37.5 61.94,37.435C63.253,36.865 64.505,35.341 65.206,33.457L65.213,33.432C65.341,33.086 65.446,32.74 65.53,32.397C65.56,32.275 65.576,32.157 65.6,32.036C65.647,31.808 65.693,31.578 65.72,31.356C65.738,31.218 65.742,31.086 65.752,30.952C65.767,30.752 65.781,30.553 65.781,30.36C65.781,30.224 65.771,30.093 65.763,29.961L65.755,29.783L65.746,29.762L65.044,28.376C65.36,29.749 65.233,31.467 64.607,33.149C63.961,34.886 62.922,36.248 61.782,37.01Z" style="fill:white;fill-rule:nonzero;stroke:rgb(95,39,205);stroke-width:0.01px;"/>
        </g>
        <g transform="matrix(82.1464,0,0,82.1464,-1156.54,-67.4928)">
            <path d="M64.667,27.312L64.697,27.194L64.627,27.124L64.59,27.087L64.522,27.019L64.541,27.055L64.654,27.286L64.667,27.312Z" style="fill:white;fill-rule:nonzero;stroke:rgb(95,39,205);stroke-width:0.01px;"/>
        </g>
        <g transform="matrix(82.1464,0,0,82.1464,-1156.54,-67.4928)">
            <path d="M61.668,33.235C61.976,33.1 62.268,32.749 62.429,32.318C62.684,31.639 62.562,30.926 62.163,30.761L61.991,30.728L61.743,30.785C61.434,30.919 61.142,31.27 60.981,31.701C60.727,32.38 60.849,33.093 61.248,33.258C61.373,33.31 61.514,33.302 61.668,33.235Z" style="fill:white;fill-rule:nonzero;stroke:rgb(95,39,205);stroke-width:0.01px;"/>
        </g>
        <g transform="matrix(82.1464,0,0,82.1464,-1156.54,-67.4928)">
            <path d="M71.886,33.174C72.182,33.137 72.469,33.163 72.733,33.273C72.875,33.331 73.001,33.417 73.12,33.512C74.101,34.288 74.334,36.188 73.608,38.133C73.092,39.516 72.21,40.591 71.245,41.01C70.99,41.121 70.737,41.175 70.492,41.184L70.431,41.191C70.214,41.191 70.005,41.15 69.808,41.069C69.604,40.984 69.43,40.848 69.273,40.691C69.502,41.216 69.834,41.621 70.277,41.811L70.297,41.824C70.734,42.006 71.245,41.978 71.772,41.747C72.855,41.276 73.888,40.017 74.469,38.463C75.367,36.064 74.957,33.555 73.575,32.985L73.326,32.911C73.209,32.884 73.088,32.867 72.964,32.867C72.688,32.867 72.397,32.932 72.1,33.061L71.886,33.174Z" style="fill:white;fill-rule:nonzero;stroke:rgb(95,39,205);stroke-width:0.01px;"/>
        </g>
        <g transform="matrix(82.1464,0,0,82.1464,-1156.54,-67.4928)">
            <path d="M68.907,20.219C69.187,19.462 69.763,18.996 70.194,19.178C70.344,19.242 70.442,19.393 70.513,19.574C70.57,19.719 70.598,19.886 70.599,20.076C70.6,20.327 70.569,20.597 70.465,20.876C70.356,21.172 70.201,21.421 70.027,21.606C69.905,21.737 69.773,21.832 69.641,21.89C69.482,21.961 69.322,21.978 69.178,21.917C68.749,21.736 68.627,20.975 68.907,20.219ZM68.752,23.083L68.757,23.085L68.812,23.099C68.929,23.138 69.045,23.152 69.155,23.146L69.269,23.136C69.383,23.118 69.488,23.086 69.576,23.05L69.599,23.041L69.83,22.898C69.929,22.837 70.028,22.778 70.123,22.696C70.241,22.595 70.355,22.48 70.464,22.352C70.606,22.184 70.738,21.997 70.858,21.792L70.861,21.787C70.987,21.57 71.101,21.338 71.194,21.089L71.206,21.048C71.422,20.449 71.499,19.846 71.46,19.319C71.444,19.097 71.411,18.889 71.353,18.703L71.285,18.524L71.19,18.317L71.013,18.086C70.916,17.981 70.808,17.891 70.681,17.838L70.547,17.812L70.329,17.769C70.139,17.769 69.965,17.822 69.834,17.88C69.195,18.157 68.584,18.905 68.239,19.831C67.709,21.256 67.944,22.743 68.75,23.082L68.752,23.083Z" style="fill:white;fill-rule:nonzero;stroke:rgb(95,39,205);stroke-width:0.01px;"/>
        </g>
        <g transform="matrix(82.1464,0,0,82.1464,-1156.54,-67.4928)">
            <path d="M54.043,51.168L54.201,51.376L54.324,51.538C54.536,51.733 54.772,51.889 55.034,51.998C55.272,52.098 56.2,52.422 57.022,52.706C56.599,52.17 56.291,51.473 56.104,50.663L56.055,50.414L56.005,50.166C55.73,48.455 55.951,46.339 56.736,44.229C57.751,41.503 59.52,39.315 61.355,38.519C61.574,38.424 61.791,38.352 62.005,38.298C61.823,38.235 61.641,38.171 61.461,38.108L61.377,38.078L61.294,38.126L61.259,38.147L61.19,38.155C60.777,38.2 59.386,38.338 58.96,38.197C58.823,38.151 58.529,37.988 58.19,37.787L58.175,37.791C57.812,37.949 57.452,38.178 57.099,38.449C57.57,39.267 57.62,40.549 57.134,41.853L57.134,41.852C56.71,42.996 55.963,43.892 55.138,44.249C54.888,44.358 54.639,44.413 54.4,44.413C54.205,44.413 54.016,44.374 53.837,44.303C53.762,44.288 53.651,44.256 53.503,44.208C52.768,46.754 52.862,49.184 53.673,50.679L53.886,50.96L54.043,51.168Z" style="fill:white;fill-rule:nonzero;stroke:rgb(95,39,205);stroke-width:0.01px;"/>
        </g>
        <g transform="matrix(82.1464,0,0,82.1464,-1156.54,-67.4928)">
            <path d="M57.466,49.885L57.416,49.637C57.154,48.279 57.326,46.526 57.992,44.733C58.797,42.561 60.172,40.832 61.582,40.223C62.241,39.938 62.883,39.912 63.44,40.147L63.579,40.22L63.81,40.354L64.028,40.523C64.594,41.027 64.956,41.849 65.092,42.86C65.127,43.115 65.143,43.383 65.149,43.66C65.158,44.08 65.136,44.521 65.077,44.979C64.974,45.766 64.77,46.597 64.46,47.437C63.654,49.609 62.278,51.337 60.869,51.947C60.624,52.052 60.382,52.109 60.144,52.143C60.043,52.158 59.941,52.176 59.842,52.177L59.81,52.181L59.562,52.158C59.373,52.135 59.186,52.096 59.011,52.023C58.3,51.723 57.803,51.041 57.533,50.126L57.466,49.885ZM58.35,53.152L58.412,53.184C58.519,53.229 58.634,53.253 58.748,53.281C58.874,53.311 59.002,53.329 59.134,53.339C59.588,53.372 60.072,53.294 60.572,53.079C62.287,52.334 63.954,50.255 64.921,47.652C65.603,45.82 65.846,43.995 65.705,42.471L65.679,42.211C65.662,42.072 65.638,41.937 65.614,41.804C65.58,41.617 65.54,41.436 65.492,41.262C65.351,40.74 65.151,40.28 64.895,39.897C64.678,39.571 64.423,39.298 64.127,39.098C64.038,39.038 63.943,38.989 63.847,38.942L63.714,38.871L63.6,38.836C63.351,38.747 63.088,38.695 62.813,38.695C62.412,38.695 61.988,38.789 61.554,38.977C59.839,39.721 58.173,41.8 57.205,44.404C56.461,46.401 56.235,48.394 56.466,49.993L56.511,50.244L56.555,50.494C56.835,51.778 57.446,52.742 58.35,53.152Z" style="fill:white;fill-rule:nonzero;stroke:rgb(95,39,205);stroke-width:0.01px;"/>
        </g>
        <g transform="matrix(82.1464,0,0,82.1464,-1156.54,-67.4928)">
            <path d="M59.808,47.367C59.975,47.435 60.163,47.425 60.37,47.334C60.809,47.143 61.23,46.628 61.468,45.991C61.834,45.015 61.68,43.999 61.133,43.774L60.905,43.73C60.8,43.73 60.689,43.755 60.572,43.806C60.132,43.997 59.711,44.513 59.473,45.15C59.108,46.126 59.261,47.141 59.808,47.367Z" style="fill:white;fill-rule:nonzero;stroke:rgb(95,39,205);stroke-width:0.01px;"/>
        </g>
        <g transform="matrix(82.1464,0,0,82.1464,-1156.54,-67.4928)">
            <path d="M56.658,41.587C56.371,42.359 55.864,42.964 55.302,43.208C55.172,43.265 55.044,43.293 54.918,43.308L54.783,43.323L54.659,43.298L54.411,43.248L54.37,43.241C54.205,43.171 54.068,43.056 53.951,42.917C53.886,42.841 53.83,42.757 53.78,42.664C53.727,42.565 53.684,42.458 53.649,42.343C53.485,41.803 53.51,41.108 53.772,40.403C54.059,39.631 54.566,39.026 55.127,38.782C55.433,38.648 55.735,38.641 56.008,38.74L56.061,38.749L56.089,38.767L56.24,38.858L56.311,38.901L56.435,39.025L56.504,39.099C56.938,39.639 57.023,40.607 56.658,41.587ZM56.643,38.642L56.572,38.554L56.418,38.365L56.408,38.352C56.316,38.268 56.215,38.201 56.104,38.154L56.017,38.137C55.919,38.107 55.822,38.079 55.715,38.079C55.543,38.079 55.362,38.119 55.176,38.199C54.484,38.499 53.823,39.309 53.45,40.312C53.071,41.331 53.06,42.373 53.346,43.075C53.392,43.188 53.443,43.294 53.504,43.387L53.69,43.616C53.774,43.698 53.869,43.761 53.97,43.81L54.011,43.836C54.121,43.881 54.241,43.89 54.361,43.895C54.476,43.9 54.595,43.878 54.717,43.846L54.939,43.791C55.631,43.491 56.293,42.681 56.666,41.678C57.071,40.588 57.054,39.472 56.705,38.776L56.643,38.642Z" style="fill:white;fill-rule:nonzero;stroke:rgb(95,39,205);stroke-width:0.01px;"/>
        </g>
        <g transform="matrix(82.1464,0,0,82.1464,-1156.54,-67.4928)">
            <path d="M48.283,33.82L48.262,33.812L47.998,33.706C47.698,33.58 47.377,33.518 47.043,33.518C46.628,33.518 46.194,33.614 45.752,33.805C44.179,34.488 42.681,36.31 41.844,38.56C41.749,38.818 41.666,39.077 41.59,39.333C41.86,40.333 42.154,41.423 42.433,42.458C42.477,41.599 42.632,40.696 42.913,39.785C42.974,39.579 43.043,39.374 43.119,39.169L43.121,39.164L43.132,39.131C44.029,36.722 45.59,34.838 47.31,34.092C47.638,33.95 47.962,33.871 48.283,33.82Z" style="fill:white;fill-rule:nonzero;stroke:rgb(95,39,205);stroke-width:0.01px;"/>
        </g>
        <g transform="matrix(82.1464,0,0,82.1464,-1156.54,-67.4928)">
            <path d="M44.961,47.321L44.983,47.332C45.273,47.453 45.584,47.503 45.904,47.507C46.145,47.511 46.391,47.493 46.644,47.431C46.836,47.383 47.032,47.318 47.229,47.233C48.786,46.558 50.264,44.766 51.106,42.55L51.136,42.478C51.179,42.364 51.213,42.249 51.252,42.136C51.317,41.943 51.377,41.749 51.431,41.557C51.621,40.879 51.74,40.211 51.793,39.568C51.812,39.346 51.823,39.128 51.826,38.913C51.828,38.76 51.828,38.609 51.822,38.459C51.776,37.282 51.489,36.249 50.983,35.501C50.828,35.272 50.655,35.067 50.46,34.895C50.248,34.709 50.012,34.559 49.754,34.451L49.726,34.442C49.434,34.325 49.124,34.263 48.8,34.263C48.385,34.263 47.951,34.36 47.509,34.551C47.393,34.601 47.279,34.67 47.165,34.733C47.838,34.538 48.496,34.55 49.087,34.795C49.739,35.067 50.252,35.587 50.613,36.275C50.713,36.467 50.798,36.676 50.875,36.893C50.949,37.104 51.013,37.323 51.064,37.553C51.211,38.227 51.255,38.977 51.189,39.764C51.146,40.264 51.056,40.779 50.921,41.297C50.838,41.621 50.741,41.946 50.621,42.27C50.026,43.865 49.072,45.185 47.972,45.996C47.781,46.137 47.585,46.26 47.386,46.369C47.269,46.432 47.154,46.499 47.036,46.551L46.838,46.616C46.45,46.76 46.064,46.848 45.692,46.848C45.331,46.848 44.981,46.78 44.651,46.643C44.142,46.431 43.716,46.065 43.383,45.586C43.73,46.403 44.26,47.019 44.961,47.321Z" style="fill:white;fill-rule:nonzero;stroke:rgb(95,39,205);stroke-width:0.01px;"/>
        </g>
        <g transform="matrix(82.1464,0,0,82.1464,-1156.54,-67.4928)">
            <path d="M45.659,40.243C45.393,40.946 45.579,41.68 46.074,41.88C46.306,41.974 46.526,41.916 46.67,41.854C46.998,41.71 47.285,41.381 47.439,40.974C47.7,40.283 47.51,39.534 47.024,39.337L46.768,39.288C46.636,39.288 46.517,39.325 46.427,39.364C46.1,39.506 45.813,39.835 45.659,40.243Z" style="fill:white;fill-rule:nonzero;stroke:rgb(95,39,205);stroke-width:0.01px;"/>
        </g>
        <g transform="matrix(82.1464,0,0,82.1464,-1156.54,-67.4928)">
            <path d="M59.464,14.392C59.156,14.392 58.838,14.499 58.531,14.708C57.709,15.268 57.051,16.48 56.815,17.873C56.58,19.26 56.789,20.565 57.293,21.401L57.888,21.602L57.936,21.648L58.034,21.687C58.156,21.764 58.31,21.925 58.348,22.253L58.35,22.274L58.417,22.301C58.481,22.314 58.635,22.342 58.821,22.372C57.993,21.483 57.603,19.831 57.911,18.02C58.154,16.586 58.793,15.366 59.639,14.682L59.64,14.681L59.645,14.678L59.77,14.579L59.772,14.578L59.837,14.526L59.965,14.454C59.86,14.44 59.77,14.428 59.734,14.42C59.645,14.402 59.555,14.392 59.464,14.392Z" style="fill:white;fill-rule:nonzero;stroke:rgb(95,39,205);stroke-width:0.01px;"/>
        </g>
        <g transform="matrix(82.1464,0,0,82.1464,-1156.54,-67.4928)">
            <path d="M58.404,18.104C58.183,19.404 58.356,20.628 58.794,21.466C59.427,20.897 59.909,19.987 60.089,18.939C60.312,17.644 60.056,16.374 59.443,15.599C58.948,16.236 58.57,17.122 58.404,18.104Z" style="fill:white;fill-rule:nonzero;stroke:rgb(95,39,205);stroke-width:0.01px;"/>
        </g>
        <g transform="matrix(82.1464,0,0,82.1464,-1156.54,-67.4928)">
            <path d="M54.418,23.51C54.421,23.618 54.318,28.938 54.421,29.941C54.442,30.139 54.474,30.295 54.52,30.427C54.571,30.574 54.638,30.689 54.726,30.785L54.955,30.97C55.102,31.067 55.279,31.156 55.502,31.264L55.535,31.281L55.623,31.323L55.783,31.396L56.016,31.498C56.788,31.819 57.651,32.045 57.809,32.037C57.826,32.012 57.856,31.854 57.851,31.738L57.85,27.278L57.85,26.89L57.85,26.521L57.85,22.615L57.85,22.335L57.85,22.298L57.848,22.291L57.768,22.111L57.673,22.089L57.583,22.101L57.566,22.107C57.548,22.114 57.461,22.144 57.336,22.188L57.283,22.206C56.636,22.434 55.096,22.98 54.704,23.165C54.395,23.31 54.415,23.49 54.418,23.51Z" style="fill:white;fill-rule:nonzero;stroke:rgb(95,39,205);stroke-width:0.01px;"/>
        </g>
        <g transform="matrix(82.1464,0,0,82.1464,-1156.54,-67.4928)">
            <path d="M55.822,20.055C55.507,19.923 55.022,19.811 54.395,19.811C53.868,19.811 53.442,19.891 53.13,19.994L52.988,20.047C52.822,20.115 52.704,20.187 52.637,20.255L52.571,20.369L52.572,20.372L52.661,20.505L52.757,20.576C53.024,20.745 53.569,20.913 54.321,20.924L54.395,20.927C54.613,20.927 54.809,20.911 54.994,20.888C55.179,20.864 55.35,20.833 55.497,20.794C55.785,20.717 55.992,20.618 56.108,20.525L56.219,20.369L56.174,20.277C56.117,20.206 55.995,20.128 55.822,20.055Z" style="fill:white;fill-rule:nonzero;stroke:rgb(95,39,205);stroke-width:0.01px;"/>
        </g>
        <g transform="matrix(82.1464,0,0,82.1464,-1156.54,-67.4928)">
            <path d="M67.177,23.833L66.939,23.746L66.144,23.454L65.908,23.368L65.671,23.281L64.95,23.016L64.703,22.925L64.445,22.83L64.206,22.743L64.194,22.738L64.122,22.724L63.998,22.753C63.778,22.848 63.551,23.137 63.421,23.488C63.219,24.033 63.305,24.539 63.517,24.628L63.782,24.725L64.039,24.818L64.287,24.909L65.184,25.236L65.42,25.322L65.657,25.408L66.544,25.731L66.782,25.817L66.787,25.819L66.786,25.796C66.734,25.487 66.762,25.122 66.9,24.752C66.946,24.627 67.002,24.51 67.064,24.401C67.161,24.232 67.278,24.092 67.404,23.973L67.446,23.932L67.415,23.92L67.177,23.833Z" style="fill:white;fill-rule:nonzero;stroke:rgb(95,39,205);stroke-width:0.01px;"/>
        </g>
        <g transform="matrix(82.1464,0,0,82.1464,-1156.54,-67.4928)">
            <path d="M67.284,25.749C67.313,25.895 67.369,26.004 67.448,26.049L67.464,26.066L67.661,26.051L67.724,26.01C67.923,25.891 68.119,25.633 68.237,25.316C68.386,24.913 68.377,24.534 68.277,24.326L68.141,24.176L68.069,24.161L68.068,24.162L67.945,24.191L67.75,24.329C67.599,24.469 67.46,24.68 67.369,24.926C67.252,25.241 67.239,25.533 67.284,25.749Z" style="fill:white;fill-rule:nonzero;stroke:rgb(95,39,205);stroke-width:0.01px;"/>
        </g>
        <g transform="matrix(82.1464,0,0,82.1464,-1156.54,-67.4928)">
            <path d="M20.157,13.036C19.636,13.39 19.072,13.802 18.679,14.171C18.435,14.4 18.15,14.831 17.866,15.329C17.96,15.372 18.051,15.415 18.141,15.457C18.606,15.672 19.013,15.859 19.29,15.985L19.591,16.123C19.86,16.246 20.501,16.491 21.364,16.805C21.613,16.339 21.89,15.919 22.182,15.645C22.893,14.978 24.172,13.998 24.858,13.483C23.722,13.059 22.575,12.631 21.441,12.209C21.336,12.272 20.789,12.606 20.157,13.036Z" style="fill:white;fill-rule:nonzero;stroke:rgb(95,39,205);stroke-width:0.01px;"/>
        </g>
        <g transform="matrix(82.1464,0,0,82.1464,-1156.54,-67.4928)">
            <path d="M25.915,13.942C25.902,13.951 25.189,14.477 24.411,15.087C23.85,15.526 23.258,16.007 22.865,16.374C22.681,16.547 22.494,16.823 22.314,17.148C22.438,17.193 22.566,17.239 22.696,17.285C23.705,17.645 24.858,18.05 26.021,18.455C26.214,18.128 26.424,17.83 26.654,17.614C27.385,16.93 28.793,15.777 29.488,15.215C28.361,14.792 27.174,14.348 25.959,13.894L25.915,13.942Z" style="fill:white;fill-rule:nonzero;stroke:rgb(95,39,205);stroke-width:0.01px;"/>
        </g>
        <g transform="matrix(82.1464,0,0,82.1464,-1156.54,-67.4928)">
            <path d="M16.104,14.49C16.192,14.533 16.281,14.576 16.372,14.62C16.565,14.714 16.76,14.807 16.956,14.901C17.172,14.521 17.396,14.163 17.617,13.872C17.745,13.704 17.872,13.557 17.995,13.441C18.092,13.35 18.203,13.257 18.314,13.163C18.92,12.655 19.697,12.128 20.257,11.769L20.193,11.745C18.873,11.254 17.592,10.779 16.39,10.333L16.232,10.535C15.259,11.649 14.201,12.999 14.079,13.369C14.271,13.553 14.984,13.934 15.837,14.358C15.925,14.402 16.013,14.445 16.104,14.49Z" style="fill:white;fill-rule:nonzero;stroke:rgb(95,39,205);stroke-width:0.01px;"/>
        </g>
        <g transform="matrix(82.1464,0,0,82.1464,-1156.54,-67.4928)">
            <path d="M21.591,11.198C21.69,11.234 21.79,11.271 21.889,11.308C29.647,14.194 37.109,16.998 38.181,17.5L38.313,17.569C38.752,17.928 38.937,18.624 38.971,18.768C39.631,18.723 40.495,18.683 40.769,18.718C41.03,18.752 42.353,19.303 43.479,19.785C42.863,19.235 42.547,18.74 42.824,18.275C43.001,17.978 47.056,14.64 49.487,13.039C50.039,12.676 50.504,12.404 50.824,12.276L51.007,12.221C50.837,12.137 50.67,12.062 50.526,12.007C50.168,11.885 49.792,11.756 49.404,11.623C43.649,9.65 34.878,6.647 31.056,5.349C30.963,5.317 30.874,5.287 30.787,5.257C30.693,5.225 30.605,5.196 30.519,5.167C29.733,4.9 29.245,4.737 29.174,4.716C28.842,4.629 27.923,4.554 27.593,4.578C27.528,4.749 27.455,5.15 27.409,5.574L29.277,6.296L29.544,6.399L29.804,6.499L44.109,12.026C44.273,12.089 44.359,12.253 44.339,12.419L44.324,12.511C44.25,12.703 44.031,12.801 43.839,12.725L43.658,12.655L29.047,7.011L28.758,6.899L28.462,6.785L26.875,6.171L26.71,6.036L26.582,6.1L26.499,6.119C23.053,6.28 18.45,8.213 18.404,8.232C18.127,8.351 17.581,8.916 17.063,9.516C18.453,10.031 19.874,10.559 21.292,11.086C21.392,11.123 21.491,11.16 21.591,11.198Z" style="fill:white;fill-rule:nonzero;stroke:rgb(95,39,205);stroke-width:0.01px;"/>
        </g>
        <g transform="matrix(82.1464,0,0,82.1464,-1156.54,-67.4928)">
            <path d="M26.987,18.79C27.114,18.835 27.242,18.879 27.369,18.923C28.618,19.356 29.812,19.767 30.78,20.099C30.952,19.826 31.133,19.573 31.332,19.386C32.016,18.745 33.314,17.68 34.064,17.07L34.175,16.98C33.13,16.584 31.904,16.121 30.561,15.618L30.553,15.627L30.518,15.669C30.504,15.68 29.678,16.342 28.822,17.056C28.271,17.516 27.708,17.997 27.337,18.344C27.217,18.456 27.101,18.616 26.987,18.79Z" style="fill:white;fill-rule:nonzero;stroke:rgb(95,39,205);stroke-width:0.01px;"/>
        </g>
        <g transform="matrix(82.1464,0,0,82.1464,-1156.54,-67.4928)">
            <path d="M63.136,9.602C63.022,9.663 62.852,9.972 62.679,10.396L62.589,10.626L62.504,10.861C62.442,11.044 62.38,11.235 62.324,11.432L70.094,13.792L72.38,14.486L72.621,14.558L72.712,14.586L72.774,14.198C72.768,13.959 72.752,13.688 72.721,13.389C71.99,11.102 69.796,9.301 67.414,9.131C64.858,8.949 63.571,9.4 63.136,9.602Z" style="fill:white;fill-rule:nonzero;stroke:rgb(95,39,205);stroke-width:0.01px;"/>
        </g>
        <g transform="matrix(82.1464,0,0,82.1464,-1156.54,-67.4928)">
            <path d="M30.557,4.388L30.691,4.298C30.984,4.114 31.291,3.95 31.606,3.807C32.237,3.52 32.903,3.307 33.589,3.207C33.926,3.161 34.291,3.124 34.611,3.138C34.923,3.178 35.286,3.269 35.625,3.351C36.083,3.464 36.539,3.591 36.995,3.715L37.245,3.781L37.496,3.848L37.688,3.899C40.428,4.681 43.158,5.51 45.885,6.342L49.865,7.573L51.892,8.2L53.888,8.817L54.059,8.87L58.142,10.149L60.182,10.792L61.201,11.119L61.359,11.188L61.349,11.278L61.313,11.403L61.252,11.51L61.146,11.692L60.975,11.691C60.361,11.699 59.751,11.657 59.142,11.623C58.419,11.578 57.691,11.584 56.968,11.651C56.246,11.723 55.523,11.824 54.814,12.003C54.15,12.18 53.492,12.391 52.851,12.658L52.842,12.654L52.846,12.659L52.877,12.701L52.99,12.859L53.1,13.077L53.157,13.235C53.513,13.612 53.697,13.871 53.787,14.053C54.647,13.508 55.777,12.939 57.197,12.564C57.401,12.509 57.603,12.632 57.656,12.831C57.709,13.032 57.588,13.237 57.388,13.29C56.361,13.561 55.499,13.948 54.779,14.346L54.338,14.595C53.45,15.138 52.871,15.651 52.611,15.904C50.703,17.902 47.276,21.207 47.232,21.237C46.989,21.398 46.731,21.48 46.448,21.48C46.305,21.48 46.155,21.453 46,21.411C46.806,22.066 47.908,22.943 48.941,23.759C48.938,23.001 48.934,22.444 48.934,22.431C48.901,22.095 49.055,21.331 49.88,21.005C50.402,20.799 51.377,20.485 52.094,20.26C52.292,19.239 55.132,19.058 56.261,19.721C56.196,19.118 56.207,18.467 56.322,17.789C56.584,16.244 57.304,14.938 58.25,14.295C58.763,13.946 59.31,13.819 59.836,13.931C59.881,13.94 60.009,13.956 60.164,13.975C60.706,14.043 60.957,14.082 61.089,14.129C61.202,14.131 61.314,14.138 61.425,14.161C62.962,14.486 63.837,16.682 63.417,19.161C63.155,20.706 62.434,22.013 61.489,22.656C61.097,22.923 60.683,23.059 60.276,23.059L60.073,23.038L60.07,23.039L60.022,23.041C59.699,23.041 58.535,22.831 58.35,22.797L58.35,26.05C58.73,25.73 59.128,25.468 59.54,25.289C60.329,24.947 61.106,24.917 61.789,25.203C62.296,25.416 64.225,26.279 64.257,26.294L64.258,26.294L64.263,26.296L64.264,26.297C64.469,26.384 64.658,26.503 64.835,26.64L65.063,25.723L63.899,25.299C63.795,25.378 63.689,25.447 63.579,25.494C63.435,25.556 63.292,25.588 63.153,25.588C63.034,25.588 62.918,25.565 62.809,25.519C62.139,25.236 61.93,24.163 62.333,23.076C62.585,22.395 63.023,21.864 63.504,21.656C63.772,21.539 64.037,21.531 64.274,21.631C64.585,21.762 64.792,22.067 64.889,22.461L65.794,22.793L66.41,20.32C66.459,19.99 66.537,19.652 66.662,19.311L66.663,19.305L66.664,19.304L66.671,19.278C67.068,18.212 67.765,17.375 68.536,17.041C68.968,16.854 69.397,16.839 69.775,16.997C69.799,17.006 69.92,17.047 70.065,17.096C70.656,17.295 70.715,17.319 70.755,17.342L70.875,17.377C71.052,17.451 71.202,17.57 71.339,17.706L71.963,15.143L61.758,12.044C61.655,12.013 61.579,11.94 61.534,11.85L61.533,11.85L61.533,11.848L61.55,11.595L61.56,11.451L61.562,11.371L61.563,11.339L61.57,11.341C61.629,11.122 61.708,10.863 61.801,10.59L61.887,10.355L61.976,10.125C62.202,9.577 62.489,9.076 62.82,8.922C63.426,8.64 64.835,8.193 67.467,8.383C68.775,8.477 70.026,9.019 71.07,9.833C69.58,8.586 67.167,7.883 66.261,7.624C64.565,7.14 43.062,0.93 43.062,0.93C43.039,0.922 41.985,0.572 41.527,1.174L41.342,1.272C40.651,1.311 39.438,1.444 39.124,1.631C38.85,1.794 38.158,2.795 37.676,3.558L37.426,3.486L37.177,3.415L35.716,2.995C35.364,2.904 35.036,2.808 34.642,2.75C34.252,2.727 33.902,2.759 33.532,2.8C32.803,2.891 32.094,3.102 31.421,3.391C31.085,3.535 30.757,3.701 30.442,3.89C30.284,3.983 30.129,4.082 29.978,4.187L29.973,4.191C30.062,4.221 30.16,4.254 30.266,4.29C30.355,4.32 30.456,4.354 30.557,4.388Z" style="fill:white;fill-rule:nonzero;stroke:rgb(95,39,205);stroke-width:0.01px;"/>
        </g>
        <g transform="matrix(82.1464,0,0,82.1464,-1156.54,-67.4928)">
            <path d="M22.393,43.319L22.393,46.475L22.383,46.545C22.368,46.6 22.034,47.962 24.795,48.735C25.684,48.983 27.854,49.097 28.734,48.538C28.924,48.417 29.029,48.28 29.056,48.117L29.066,47.986C29.069,47.92 29.072,47.834 29.075,47.731L29.078,47.558L29.077,47.473L29.053,45.931L29.075,45.874C29.07,45.374 29.064,44.871 29.056,44.435C28.893,44.451 28.731,44.466 28.573,44.48L28.573,47.825L28.563,47.857L28.426,48.052C27.869,48.305 27.34,48.367 26.957,48.367C26.606,48.367 26.377,48.315 26.357,48.311C26.245,48.284 26.165,48.183 26.165,48.067L26.165,47.242L26.165,46.983L26.165,46.725L26.165,44.408C25.375,44.099 23.999,43.441 22.727,42.802L22.461,42.669L22.485,42.749L22.393,42.729L22.393,43.319Z" style="fill:white;fill-rule:nonzero;stroke:rgb(95,39,205);stroke-width:0.01px;"/>
        </g>
        <g transform="matrix(82.1464,0,0,82.1464,-1156.54,-67.4928)">
            <path d="M40.242,47.353C40.135,47.284 40.097,47.145 40.154,47.031C40.211,46.917 40.344,46.864 40.465,46.909L47.772,49.618L47.865,49.683L47.932,49.81L48.326,52.088C48.342,52.186 48.3,52.285 48.217,52.339L48.131,52.365L48.08,52.38L47.944,52.34L47.882,52.301L42.012,48.498L40.242,47.353ZM38.466,51.22C38.874,51.02 39.263,50.838 39.618,50.696C39.771,50.634 39.91,50.588 40.044,50.546C40.29,50.471 40.504,50.43 40.668,50.449L40.735,50.446C40.787,50.456 40.883,50.489 41.02,50.538C41.354,50.662 41.954,50.904 42.842,51.265C42.945,51.307 43.045,51.347 43.156,51.393C43.568,51.56 44.057,51.759 44.573,51.967C46.465,52.731 48.747,53.625 49.141,53.625L49.155,53.624C49.615,53.572 52.03,52.444 53.718,51.614L53.744,51.601L53.712,51.56L53.555,51.352L53.398,51.144L53.327,51.049L53.265,50.968L53.249,50.904L53.225,50.768L53.169,50.757C52.37,49.12 52.285,46.629 53.031,44.046C52.569,43.882 52.102,43.704 52.094,43.701C51.816,43.585 51.586,43.388 51.404,43.135C50.486,45.309 49.029,46.996 47.428,47.692C46.922,47.912 46.42,48.021 45.939,48.021C45.54,48.021 45.153,47.946 44.791,47.793L44.79,47.793C44.56,47.723 43.777,47.38 43.266,47.153C42.297,46.829 41.933,46.262 41.918,46.239L41.917,46.237C41.336,45.585 40.95,44.666 40.773,43.594L40.743,43.477C40.744,43.572 40.74,43.655 40.723,43.704C40.723,43.704 39.912,46.147 39.175,47.925C38.809,48.809 38.46,49.532 38.239,49.703L38.119,49.794C38.037,49.857 37.95,49.92 37.858,49.986C37.771,50.048 37.676,50.11 37.577,50.171C37.233,50.382 36.809,50.568 36.26,50.666C37.193,51.073 37.884,51.355 38.094,51.399C38.176,51.364 38.307,51.299 38.466,51.22Z" style="fill:white;fill-rule:nonzero;stroke:rgb(95,39,205);stroke-width:0.01px;"/>
        </g>
        <g transform="matrix(82.1464,0,0,82.1464,-1156.54,-67.4928)">
            <path d="M31.354,36.583C31.337,36.628 31.28,36.73 31.096,36.826C30.98,36.884 30.826,36.942 30.567,36.979C30.472,36.993 30.324,37.009 30.168,37.009C29.919,37.009 29.647,36.967 29.526,36.806C29.35,36.569 28.101,32.907 28.238,32.152C28.345,31.566 28.804,30.169 28.942,29.757C28.967,29.933 28.999,30.106 29.036,30.274C29.07,30.43 29.108,30.582 29.152,30.731C29.361,31.439 29.677,32.04 30.088,32.48C30.337,32.744 30.616,32.957 30.932,33.089L31.506,33.318L31.743,33.411L31.98,33.505C31.771,34.602 31.425,36.392 31.354,36.583ZM31.984,48.736C32.63,49.034 33.286,49.334 33.919,49.622C34.408,49.746 34.924,49.808 35.339,49.672L35.44,49.622C35.535,49.576 35.626,49.516 35.708,49.433L35.885,49.221C36.195,48.778 36.405,48.089 36.552,47.394C36.722,46.598 36.81,45.792 36.876,45.336C37.027,44.281 37.572,41.161 37.572,41.161L40.356,42.022C39.905,40.324 39.15,37.484 38.586,35.364C38.456,35.381 38.324,35.408 38.196,35.408C37.847,35.408 37.509,35.341 37.191,35.208L36.995,35.107L36.776,34.983L36.668,34.904L36.469,34.75L36.41,34.727L36.395,34.721L36.155,34.625L32.074,33.005L31.838,32.911L31.601,32.818L31.12,32.626C30.49,32.363 30.015,31.723 29.716,30.872C29.624,30.611 29.55,30.327 29.493,30.029L29.45,29.814L29.426,29.619L29.422,29.592C29.251,28.263 29.402,26.695 29.943,25.241C29.983,25.135 30.03,25.034 30.074,24.929C30.12,24.817 30.164,24.703 30.213,24.595L30.238,24.534L30.248,24.516C30.3,24.405 30.358,24.301 30.415,24.193C31.009,23.041 31.797,22.097 32.651,21.519C32.741,21.459 32.83,21.402 32.921,21.349L33.188,21.209L33.306,21.146C33.654,20.995 33.996,20.922 34.325,20.91L34.408,20.901C34.566,20.901 34.719,20.921 34.869,20.954C35.115,20.947 35.361,20.939 35.604,20.93C35.839,20.922 36.066,20.912 36.285,20.903C36.769,20.882 37.194,20.86 37.486,20.838C37.377,20.739 37.301,20.623 37.299,20.473C37.299,20.343 37.456,19.241 37.974,18.919C37.947,18.829 37.913,18.73 37.869,18.634C37.812,18.509 37.745,18.396 37.68,18.343C37.64,18.322 37.531,18.277 37.374,18.213C36.982,18.054 36.249,17.77 35.258,17.392L35.118,17.504C34.846,17.722 34.212,18.236 33.55,18.787C32.978,19.264 32.392,19.764 32.016,20.116C31.925,20.201 31.835,20.308 31.748,20.431C31.894,20.481 32.031,20.528 32.155,20.57C32.475,20.68 32.72,20.763 32.867,20.813C32.764,20.866 32.661,20.912 32.56,20.973L32.306,21.15C31.719,21.557 31.169,22.11 30.686,22.781C30.457,23.099 30.244,23.442 30.048,23.807C29.96,23.972 29.872,24.135 29.792,24.307L29.695,24.538L29.599,24.769L16.505,19.584L16.36,19.819L15.824,20.681L15.939,21.014L16.202,21.782L16.27,21.979L16.377,21.899C16.4,21.883 16.961,21.494 17.818,21.71L16.256,21.111L16.157,21.073C16.028,21.024 15.963,20.879 16.013,20.75C16.058,20.635 16.18,20.584 16.296,20.608L16.335,20.606L28.897,25.424C29.026,25.473 29.09,25.618 29.041,25.746C29.003,25.846 28.908,25.907 28.808,25.907L28.718,25.89L18.335,21.909C19.414,22.476 20.035,24.485 20.1,25.204C20.124,25.46 20.085,25.693 20.024,25.889L20.229,26.787L20.272,26.831C20.555,26.292 21.142,25.25 21.611,24.904C21.996,24.62 23.002,24.01 24.039,24.452C25.29,24.987 25.829,26.352 25.916,27.451C25.955,27.93 25.944,28.388 25.925,28.724L26.017,29.177L26.026,29.183C26.43,28.566 27.144,27.544 27.521,27.407C27.867,27.277 28.472,27.553 28.882,27.781C28.875,27.875 28.869,27.968 28.865,28.061C28.86,28.157 28.856,28.252 28.854,28.347C28.36,28.049 27.822,27.828 27.692,27.877C27.495,27.961 26.824,28.862 26.314,29.659C26.291,29.716 26.073,30.247 25.93,30.609C25.854,30.805 25.813,32.108 25.791,32.808C25.763,33.675 25.753,33.906 25.72,34.001C25.68,34.117 25.57,34.263 25.066,34.379C24.939,34.409 24.713,34.451 24.496,34.451C24.302,34.451 24.115,34.417 24.006,34.31C23.681,33.984 23.392,29.553 23.513,28.874C23.654,28.081 24.8,26.875 25.193,26.481C24.987,25.9 24.599,25.236 23.842,24.912C23.042,24.571 22.223,25.075 21.908,25.306C21.49,25.615 20.836,26.814 20.587,27.313C20.632,29.064 20.648,31.976 20.267,32.343C20.196,32.411 20.106,32.447 20.011,32.447L19.904,32.433C19.705,32.379 19.468,32.118 19.229,31.779C19.057,31.535 18.886,31.256 18.727,30.963C18.366,30.299 18.071,29.615 18.005,29.384C17.951,29.192 17.851,28.554 17.804,27.855C17.783,27.542 17.776,27.225 17.787,26.92C17.805,26.42 17.874,25.972 18.043,25.739C18.395,25.257 19.134,24.85 19.485,24.675C19.263,23.852 18.748,22.657 18.076,22.331C17.234,21.922 16.686,22.293 16.664,22.309C16.66,22.312 16.575,22.372 16.443,22.483L16.241,22.663L16.044,22.859C15.636,23.276 15.125,23.917 14.815,24.768C14.252,26.316 15.428,30.772 15.733,31.177C15.794,31.237 15.933,31.361 16.106,31.517C16.773,32.115 17.234,32.556 17.529,32.9L17.775,32.998C17.838,33.06 18.839,34.052 19.729,35.219C19.883,35.421 20.031,35.626 20.172,35.835C20.372,36.13 20.545,36.424 20.694,36.714C20.75,36.825 20.816,36.937 20.862,37.044C21.263,37.978 21.438,38.855 21.517,39.489L21.546,39.744C21.58,40.094 21.583,40.322 21.583,40.402L21.846,40.597C22.202,40.851 22.51,41.049 22.715,41.147C23.803,41.663 26.411,42.743 27.523,42.779C27.839,42.792 28.239,42.757 28.663,42.697L28.678,42.688C29.078,42.64 29.329,42.2 29.49,41.668C29.694,40.996 29.752,40.173 29.745,39.771L29.766,39.718L29.772,39.655L29.802,39.628L29.866,39.571L29.952,39.534L29.991,39.517L29.995,39.517L30.041,39.536L30.092,39.537C30.103,39.54 30.945,39.888 31.796,39.848C31.937,39.841 32.078,39.827 32.215,39.795C33.354,39.536 34.807,38.966 35.268,38.465C35.58,38.125 35.907,36.42 36.088,35.137L36.325,35.231L36.43,35.273L36.627,35.351L36.683,35.362C36.711,36.416 36.712,38.302 36.404,39.071C36.047,39.963 34.093,40.976 33.212,41.395C33.237,42.421 33.245,43.584 33.158,43.765C32.998,44.098 31.481,44.145 31.481,44.145L31.411,44.103C31.02,44.2 30.313,44.298 29.555,44.382C29.561,44.672 29.571,45.306 29.577,45.982L29.554,45.978L29.579,47.602L29.579,47.615C29.944,47.786 30.335,47.969 30.74,48.158C31.143,48.346 31.561,48.539 31.984,48.736Z" style="fill:white;fill-rule:nonzero;stroke:rgb(95,39,205);stroke-width:0.01px;"/>
        </g>
        <g transform="matrix(82.1464,0,0,82.1464,-1156.54,-67.4928)">
            <path d="M41.424,32.844C40.821,32.627 40.027,32.161 39.929,32.076C39.845,32.003 39.764,31.915 39.686,31.819C39.79,32.519 39.967,33.3 40.181,34.127C40.623,33.789 41.043,33.354 41.424,32.844Z" style="fill:white;fill-rule:nonzero;stroke:rgb(95,39,205);stroke-width:0.01px;"/>
        </g>
        <g transform="matrix(82.1464,0,0,82.1464,-1156.54,-67.4928)">
            <path d="M40.184,26.143L40.298,26.138L40.445,26.165L40.696,26.212C41.528,26.421 42.666,27.016 43.255,27.345C43.246,25.7 42.694,24.366 41.699,23.802L41.485,23.666L41.484,23.666L41.245,23.593C41.06,23.542 40.87,23.506 40.671,23.506C40.317,23.506 39.946,23.588 39.569,23.752C38.216,24.339 36.927,25.908 36.207,27.846C35.213,30.517 35.491,33.215 36.767,34.354L36.98,34.492L37.195,34.627L37.384,34.747C37.715,34.885 38.08,34.923 38.458,34.881C38.213,33.96 38.021,33.238 37.923,32.876L37.897,32.776C37.871,32.678 37.845,32.576 37.819,32.476C37.785,32.341 37.751,32.208 37.717,32.071C37.36,30.592 37.12,28.954 37.654,27.946C38.053,27.195 39.043,26.125 40.184,26.143Z" style="fill:white;fill-rule:nonzero;stroke:rgb(95,39,205);stroke-width:0.01px;"/>
        </g>
        <g transform="matrix(82.1464,0,0,82.1464,-1156.54,-67.4928)">
            <path d="M41.044,32.135C40.802,31.539 40.811,30.707 41.122,29.87C41.404,29.114 41.885,28.521 42.425,28.223L42.573,28.134C42.378,28.055 42.157,27.971 41.879,27.869C41.754,27.823 41.659,27.788 41.614,27.769L41.574,27.762L41.483,27.743L41.368,27.721L41.303,27.736C41.216,27.743 41.127,27.758 41.032,27.798L41.015,27.801L40.998,27.812L40.789,27.942L40.581,28.105C40.397,28.274 40.225,28.484 40.08,28.735C39.986,28.897 39.901,29.07 39.832,29.256C39.76,29.45 39.718,29.633 39.689,29.81C39.542,30.693 39.87,31.363 40.257,31.7C40.348,31.779 40.692,31.966 41.044,32.135Z" style="fill:white;fill-rule:nonzero;stroke:rgb(95,39,205);stroke-width:0.01px;"/>
        </g>
        <g transform="matrix(82.1464,0,0,82.1464,-1156.54,-67.4928)">
            <path d="M20.173,37.34C19.767,36.392 18.838,35.257 18.134,34.472L17.97,34.288C18.046,35.331 18.19,37.205 18.782,37.921C19.127,38.339 19.747,38.913 20.404,39.467C20.535,39.578 20.664,39.687 20.796,39.793L20.773,39.593L20.768,39.555C20.694,38.977 20.532,38.178 20.173,37.34Z" style="fill:white;fill-rule:nonzero;stroke:rgb(95,39,205);stroke-width:0.01px;"/>
        </g>
        <g transform="matrix(82.1464,0,0,82.1464,-1156.54,-67.4928)">
            <path d="M46.816,20.613C47.141,20.384 50.114,17.407 51.88,15.577L52.038,15.413C52.517,14.914 52.896,14.512 53.073,14.308C52.975,14.16 52.773,13.915 52.57,13.703C52.491,13.621 52.334,13.491 52.153,13.36C51.862,13.149 51.49,12.939 51.143,12.939C51.047,12.954 50.868,13.042 50.636,13.177C48.888,14.197 43.825,18.19 43.46,18.672C43.496,18.95 44.765,19.857 45.182,20.155C46.299,20.955 46.649,20.724 46.816,20.613Z" style="fill:white;fill-rule:nonzero;stroke:rgb(95,39,205);stroke-width:0.01px;"/>
        </g>
    </g>
    <g id="Tagline--curves-" serif:id="Tagline (curves)" transform="matrix(1,0,0,1,274.345,140.855)">
        <g transform="matrix(20,0,0,20,0,0)">
            <path d="M0.066,0L0.066,-0.716L0.203,-0.716L0.203,-0.458C0.245,-0.506 0.296,-0.53 0.354,-0.53C0.417,-0.53 0.469,-0.507 0.51,-0.462C0.552,-0.416 0.572,-0.35 0.572,-0.265C0.572,-0.176 0.551,-0.108 0.509,-0.06C0.467,-0.012 0.416,0.012 0.355,0.012C0.326,0.012 0.297,0.004 0.268,-0.01C0.239,-0.025 0.214,-0.047 0.193,-0.076L0.193,0L0.066,0ZM0.202,-0.271C0.202,-0.217 0.211,-0.177 0.228,-0.151C0.251,-0.115 0.283,-0.097 0.322,-0.097C0.353,-0.097 0.378,-0.11 0.4,-0.135C0.421,-0.161 0.432,-0.202 0.432,-0.258C0.432,-0.317 0.421,-0.36 0.399,-0.386C0.378,-0.412 0.35,-0.425 0.317,-0.425C0.284,-0.425 0.257,-0.413 0.235,-0.387C0.213,-0.361 0.202,-0.323 0.202,-0.271Z" style="fill-opacity:0.5;fill-rule:nonzero;"/>
        </g>
        <g transform="matrix(20,0,0,20,12.2168,0)">
            <path d="M0.413,0L0.413,-0.078C0.394,-0.05 0.369,-0.028 0.339,-0.012C0.308,0.004 0.275,0.012 0.241,0.012C0.206,0.012 0.175,0.004 0.147,-0.011C0.12,-0.027 0.1,-0.048 0.087,-0.076C0.075,-0.103 0.069,-0.142 0.069,-0.19L0.069,-0.519L0.206,-0.519L0.206,-0.28C0.206,-0.207 0.209,-0.163 0.214,-0.146C0.219,-0.13 0.228,-0.117 0.241,-0.107C0.255,-0.098 0.271,-0.093 0.292,-0.093C0.315,-0.093 0.336,-0.099 0.355,-0.112C0.374,-0.125 0.386,-0.141 0.393,-0.16C0.4,-0.179 0.403,-0.226 0.403,-0.3L0.403,-0.519L0.541,-0.519L0.541,0L0.413,0Z" style="fill-opacity:0.5;fill-rule:nonzero;"/>
        </g>
        <g transform="matrix(20,0,0,20,24.4336,0)">
            <path d="M0.072,-0.589L0.072,-0.716L0.209,-0.716L0.209,-0.589L0.072,-0.589ZM0.072,0L0.072,-0.519L0.209,-0.519L0.209,0L0.072,0Z" style="fill-opacity:0.5;fill-rule:nonzero;"/>
        </g>
        <g transform="matrix(20,0,0,20,29.9902,0)">
            <rect x="0.072" y="-0.716" width="0.137" height="0.716" style="fill-opacity:0.5;fill-rule:nonzero;"/>
        </g>
        <g transform="matrix(20,0,0,20,35.5469,0)">
            <path d="M0.547,0L0.42,0L0.42,-0.076C0.399,-0.047 0.374,-0.024 0.345,-0.01C0.316,0.004 0.287,0.012 0.258,0.012C0.198,0.012 0.147,-0.012 0.105,-0.06C0.062,-0.108 0.041,-0.175 0.041,-0.261C0.041,-0.349 0.062,-0.416 0.103,-0.462C0.144,-0.507 0.197,-0.53 0.26,-0.53C0.318,-0.53 0.368,-0.506 0.41,-0.458L0.41,-0.716L0.547,-0.716L0.547,0ZM0.181,-0.271C0.181,-0.215 0.189,-0.175 0.204,-0.15C0.226,-0.115 0.257,-0.097 0.297,-0.097C0.328,-0.097 0.355,-0.11 0.377,-0.137C0.4,-0.164 0.411,-0.204 0.411,-0.257C0.411,-0.317 0.4,-0.36 0.378,-0.386C0.357,-0.412 0.329,-0.425 0.296,-0.425C0.263,-0.425 0.236,-0.412 0.214,-0.386C0.192,-0.361 0.181,-0.322 0.181,-0.271Z" style="fill-opacity:0.5;fill-rule:nonzero;"/>
        </g>
        <g transform="matrix(20,0,0,20,53.3203,0)">
            <path d="M0.31,-0.519L0.31,-0.409L0.216,-0.409L0.216,-0.2C0.216,-0.158 0.217,-0.133 0.219,-0.126C0.22,-0.119 0.224,-0.113 0.231,-0.109C0.237,-0.104 0.245,-0.102 0.254,-0.102C0.267,-0.102 0.285,-0.106 0.309,-0.115L0.321,-0.009C0.289,0.005 0.253,0.012 0.212,0.012C0.188,0.012 0.165,0.008 0.146,-0.001C0.126,-0.009 0.111,-0.02 0.102,-0.033C0.093,-0.046 0.086,-0.064 0.083,-0.086C0.08,-0.102 0.078,-0.135 0.078,-0.183L0.078,-0.409L0.015,-0.409L0.015,-0.519L0.078,-0.519L0.078,-0.622L0.216,-0.702L0.216,-0.519L0.31,-0.519Z" style="fill-opacity:0.5;fill-rule:nonzero;"/>
        </g>
        <g transform="matrix(20,0,0,20,59.9805,0)">
            <path d="M0.04,-0.267C0.04,-0.312 0.051,-0.356 0.074,-0.399C0.096,-0.442 0.128,-0.474 0.169,-0.497C0.21,-0.519 0.256,-0.53 0.307,-0.53C0.386,-0.53 0.45,-0.505 0.5,-0.454C0.55,-0.403 0.575,-0.339 0.575,-0.261C0.575,-0.182 0.55,-0.117 0.499,-0.066C0.449,-0.014 0.385,0.012 0.308,0.012C0.261,0.012 0.215,0.001 0.172,-0.021C0.129,-0.042 0.096,-0.073 0.074,-0.115C0.051,-0.156 0.04,-0.207 0.04,-0.267ZM0.181,-0.259C0.181,-0.208 0.193,-0.168 0.217,-0.141C0.242,-0.114 0.272,-0.1 0.308,-0.1C0.343,-0.1 0.373,-0.114 0.398,-0.141C0.422,-0.168 0.434,-0.208 0.434,-0.26C0.434,-0.311 0.422,-0.35 0.398,-0.377C0.373,-0.405 0.343,-0.418 0.308,-0.418C0.272,-0.418 0.242,-0.405 0.217,-0.377C0.193,-0.35 0.181,-0.311 0.181,-0.259Z" style="fill-opacity:0.5;fill-rule:nonzero;"/>
        </g>
        <g transform="matrix(20,0,0,20,72.1973,0)">
            <path d="M0.04,-0.267C0.04,-0.312 0.051,-0.356 0.074,-0.399C0.096,-0.442 0.128,-0.474 0.169,-0.497C0.21,-0.519 0.256,-0.53 0.307,-0.53C0.386,-0.53 0.45,-0.505 0.5,-0.454C0.55,-0.403 0.575,-0.339 0.575,-0.261C0.575,-0.182 0.55,-0.117 0.499,-0.066C0.449,-0.014 0.385,0.012 0.308,0.012C0.261,0.012 0.215,0.001 0.172,-0.021C0.129,-0.042 0.096,-0.073 0.074,-0.115C0.051,-0.156 0.04,-0.207 0.04,-0.267ZM0.181,-0.259C0.181,-0.208 0.193,-0.168 0.217,-0.141C0.242,-0.114 0.272,-0.1 0.308,-0.1C0.343,-0.1 0.373,-0.114 0.398,-0.141C0.422,-0.168 0.434,-0.208 0.434,-0.26C0.434,-0.311 0.422,-0.35 0.398,-0.377C0.373,-0.405 0.343,-0.418 0.308,-0.418C0.272,-0.418 0.242,-0.405 0.217,-0.377C0.193,-0.35 0.181,-0.311 0.181,-0.259Z" style="fill-opacity:0.5;fill-rule:nonzero;"/>
        </g>
        <g transform="matrix(20,0,0,20,84.4141,0)">
            <rect x="0.072" y="-0.716" width="0.137" height="0.716" style="fill-opacity:0.5;fill-rule:nonzero;"/>
        </g>
        <g transform="matrix(20,0,0,20,95.5273,0)">
            <rect x="0.086" y="-0.728" width="0.109" height="0.938" style="fill-opacity:0.5;fill-rule:nonzero;"/>
        </g>
        <g transform="matrix(20,0,0,20,106.68,0)">
            <path d="M0.524,-0.365L0.389,-0.341C0.384,-0.368 0.374,-0.388 0.358,-0.402C0.342,-0.416 0.321,-0.422 0.295,-0.422C0.261,-0.422 0.233,-0.411 0.213,-0.387C0.193,-0.363 0.183,-0.324 0.183,-0.269C0.183,-0.207 0.193,-0.164 0.214,-0.138C0.234,-0.113 0.262,-0.1 0.297,-0.1C0.323,-0.1 0.344,-0.108 0.361,-0.122C0.377,-0.137 0.389,-0.163 0.396,-0.199L0.531,-0.176C0.517,-0.114 0.49,-0.067 0.45,-0.036C0.41,-0.004 0.357,0.012 0.291,0.012C0.215,0.012 0.154,-0.012 0.109,-0.06C0.064,-0.108 0.042,-0.174 0.042,-0.259C0.042,-0.344 0.064,-0.411 0.109,-0.459C0.155,-0.506 0.216,-0.53 0.293,-0.53C0.356,-0.53 0.406,-0.517 0.444,-0.49C0.481,-0.462 0.508,-0.421 0.524,-0.365Z" style="fill-opacity:0.5;fill-rule:nonzero;"/>
        </g>
        <g transform="matrix(20,0,0,20,117.803,0)">
            <path d="M0.04,-0.267C0.04,-0.312 0.051,-0.356 0.074,-0.399C0.096,-0.442 0.128,-0.474 0.169,-0.497C0.21,-0.519 0.256,-0.53 0.307,-0.53C0.386,-0.53 0.45,-0.505 0.5,-0.454C0.55,-0.403 0.575,-0.339 0.575,-0.261C0.575,-0.182 0.55,-0.117 0.499,-0.066C0.449,-0.014 0.385,0.012 0.308,0.012C0.261,0.012 0.215,0.001 0.172,-0.021C0.129,-0.042 0.096,-0.073 0.074,-0.115C0.051,-0.156 0.04,-0.207 0.04,-0.267ZM0.181,-0.259C0.181,-0.208 0.193,-0.168 0.217,-0.141C0.242,-0.114 0.272,-0.1 0.308,-0.1C0.343,-0.1 0.373,-0.114 0.398,-0.141C0.422,-0.168 0.434,-0.208 0.434,-0.26C0.434,-0.311 0.422,-0.35 0.398,-0.377C0.373,-0.405 0.343,-0.418 0.308,-0.418C0.272,-0.418 0.242,-0.405 0.217,-0.377C0.193,-0.35 0.181,-0.311 0.181,-0.259Z" style="fill-opacity:0.5;fill-rule:nonzero;"/>
        </g>
        <g transform="matrix(20,0,0,20,130.02,0)">
            <path d="M0.547,0L0.42,0L0.42,-0.076C0.399,-0.047 0.374,-0.024 0.345,-0.01C0.316,0.004 0.287,0.012 0.258,0.012C0.198,0.012 0.147,-0.012 0.105,-0.06C0.062,-0.108 0.041,-0.175 0.041,-0.261C0.041,-0.349 0.062,-0.416 0.103,-0.462C0.144,-0.507 0.197,-0.53 0.26,-0.53C0.318,-0.53 0.368,-0.506 0.41,-0.458L0.41,-0.716L0.547,-0.716L0.547,0ZM0.181,-0.271C0.181,-0.215 0.189,-0.175 0.204,-0.15C0.226,-0.115 0.257,-0.097 0.297,-0.097C0.328,-0.097 0.355,-0.11 0.377,-0.137C0.4,-0.164 0.411,-0.204 0.411,-0.257C0.411,-0.317 0.4,-0.36 0.378,-0.386C0.357,-0.412 0.329,-0.425 0.296,-0.425C0.263,-0.425 0.236,-0.412 0.214,-0.386C0.192,-0.361 0.181,-0.322 0.181,-0.271Z" style="fill-opacity:0.5;fill-rule:nonzero;"/>
        </g>
        <g transform="matrix(20,0,0,20,142.236,0)">
            <path d="M0.372,-0.165L0.509,-0.142C0.491,-0.092 0.463,-0.054 0.426,-0.028C0.388,-0.001 0.34,0.012 0.283,0.012C0.193,0.012 0.126,-0.018 0.083,-0.077C0.049,-0.124 0.032,-0.183 0.032,-0.255C0.032,-0.341 0.054,-0.409 0.099,-0.457C0.144,-0.506 0.201,-0.53 0.27,-0.53C0.347,-0.53 0.408,-0.505 0.452,-0.454C0.497,-0.403 0.518,-0.325 0.516,-0.22L0.172,-0.22C0.173,-0.179 0.184,-0.147 0.206,-0.125C0.227,-0.102 0.253,-0.091 0.285,-0.091C0.306,-0.091 0.324,-0.097 0.339,-0.108C0.354,-0.12 0.365,-0.139 0.372,-0.165ZM0.38,-0.304C0.379,-0.343 0.369,-0.374 0.349,-0.394C0.33,-0.415 0.306,-0.425 0.278,-0.425C0.248,-0.425 0.223,-0.414 0.204,-0.393C0.184,-0.371 0.174,-0.341 0.175,-0.304L0.38,-0.304Z" style="fill-opacity:0.5;fill-rule:nonzero;"/>
        </g>
        <g transform="matrix(20,0,0,20,158.916,0)">
            <path d="M0.059,0.034L0.216,0.053C0.218,0.071 0.224,0.084 0.234,0.091C0.247,0.101 0.267,0.105 0.295,0.105C0.331,0.105 0.358,0.1 0.376,0.089C0.388,0.082 0.397,0.071 0.403,0.055C0.408,0.043 0.41,0.022 0.41,-0.008L0.41,-0.084C0.369,-0.028 0.317,0 0.254,0C0.185,0 0.13,-0.029 0.089,-0.088C0.057,-0.135 0.041,-0.193 0.041,-0.262C0.041,-0.349 0.062,-0.416 0.104,-0.461C0.146,-0.507 0.198,-0.53 0.26,-0.53C0.324,-0.53 0.377,-0.502 0.418,-0.446L0.418,-0.519L0.547,-0.519L0.547,-0.053C0.547,0.008 0.542,0.054 0.532,0.084C0.522,0.114 0.507,0.138 0.489,0.155C0.471,0.173 0.447,0.186 0.416,0.196C0.386,0.206 0.347,0.21 0.301,0.21C0.213,0.21 0.151,0.195 0.114,0.165C0.077,0.135 0.059,0.097 0.059,0.051C0.059,0.046 0.059,0.041 0.059,0.034ZM0.182,-0.27C0.182,-0.215 0.192,-0.175 0.214,-0.149C0.235,-0.124 0.261,-0.111 0.292,-0.111C0.326,-0.111 0.354,-0.124 0.377,-0.15C0.401,-0.176 0.412,-0.215 0.412,-0.267C0.412,-0.32 0.401,-0.36 0.379,-0.386C0.357,-0.412 0.329,-0.425 0.295,-0.425C0.262,-0.425 0.235,-0.413 0.214,-0.387C0.192,-0.361 0.182,-0.322 0.182,-0.27Z" style="fill-opacity:0.5;fill-rule:nonzero;"/>
        </g>
        <g transform="matrix(20,0,0,20,171.133,0)">
            <path d="M0.372,-0.165L0.509,-0.142C0.491,-0.092 0.463,-0.054 0.426,-0.028C0.388,-0.001 0.34,0.012 0.283,0.012C0.193,0.012 0.126,-0.018 0.083,-0.077C0.049,-0.124 0.032,-0.183 0.032,-0.255C0.032,-0.341 0.054,-0.409 0.099,-0.457C0.144,-0.506 0.201,-0.53 0.27,-0.53C0.347,-0.53 0.408,-0.505 0.452,-0.454C0.497,-0.403 0.518,-0.325 0.516,-0.22L0.172,-0.22C0.173,-0.179 0.184,-0.147 0.206,-0.125C0.227,-0.102 0.253,-0.091 0.285,-0.091C0.306,-0.091 0.324,-0.097 0.339,-0.108C0.354,-0.12 0.365,-0.139 0.372,-0.165ZM0.38,-0.304C0.379,-0.343 0.369,-0.374 0.349,-0.394C0.33,-0.415 0.306,-0.425 0.278,-0.425C0.248,-0.425 0.223,-0.414 0.204,-0.393C0.184,-0.371 0.174,-0.341 0.175,-0.304L0.38,-0.304Z" style="fill-opacity:0.5;fill-rule:nonzero;"/>
        </g>
        <g transform="matrix(20,0,0,20,182.256,0)">
            <path d="M0.543,0L0.406,0L0.406,-0.265C0.406,-0.321 0.403,-0.357 0.397,-0.373C0.392,-0.39 0.382,-0.403 0.369,-0.412C0.356,-0.421 0.34,-0.425 0.321,-0.425C0.298,-0.425 0.276,-0.419 0.257,-0.406C0.238,-0.393 0.226,-0.375 0.219,-0.354C0.212,-0.333 0.208,-0.293 0.208,-0.235L0.208,0L0.071,0L0.071,-0.519L0.198,-0.519L0.198,-0.442C0.243,-0.501 0.3,-0.53 0.369,-0.53C0.399,-0.53 0.427,-0.525 0.452,-0.514C0.477,-0.503 0.496,-0.489 0.509,-0.472C0.522,-0.455 0.531,-0.436 0.536,-0.415C0.541,-0.393 0.543,-0.362 0.543,-0.322L0.543,0Z" style="fill-opacity:0.5;fill-rule:nonzero;"/>
        </g>
        <g transform="matrix(20,0,0,20,194.473,0)">
            <path d="M0.372,-0.165L0.509,-0.142C0.491,-0.092 0.463,-0.054 0.426,-0.028C0.388,-0.001 0.34,0.012 0.283,0.012C0.193,0.012 0.126,-0.018 0.083,-0.077C0.049,-0.124 0.032,-0.183 0.032,-0.255C0.032,-0.341 0.054,-0.409 0.099,-0.457C0.144,-0.506 0.201,-0.53 0.27,-0.53C0.347,-0.53 0.408,-0.505 0.452,-0.454C0.497,-0.403 0.518,-0.325 0.516,-0.22L0.172,-0.22C0.173,-0.179 0.184,-0.147 0.206,-0.125C0.227,-0.102 0.253,-0.091 0.285,-0.091C0.306,-0.091 0.324,-0.097 0.339,-0.108C0.354,-0.12 0.365,-0.139 0.372,-0.165ZM0.38,-0.304C0.379,-0.343 0.369,-0.374 0.349,-0.394C0.33,-0.415 0.306,-0.425 0.278,-0.425C0.248,-0.425 0.223,-0.414 0.204,-0.393C0.184,-0.371 0.174,-0.341 0.175,-0.304L0.38,-0.304Z" style="fill-opacity:0.5;fill-rule:nonzero;"/>
        </g>
        <g transform="matrix(20,0,0,20,205.596,0)">
            <path d="M0.203,0L0.066,0L0.066,-0.519L0.193,-0.519L0.193,-0.445C0.215,-0.48 0.235,-0.503 0.252,-0.514C0.27,-0.525 0.289,-0.53 0.312,-0.53C0.343,-0.53 0.373,-0.522 0.402,-0.504L0.359,-0.385C0.336,-0.4 0.315,-0.407 0.295,-0.407C0.276,-0.407 0.259,-0.402 0.246,-0.391C0.233,-0.381 0.222,-0.362 0.215,-0.334C0.207,-0.306 0.203,-0.248 0.203,-0.16L0.203,0Z" style="fill-opacity:0.5;fill-rule:nonzero;"/>
        </g>
        <g transform="matrix(20,0,0,20,213.379,0)">
            <path d="M0.174,-0.36L0.05,-0.383C0.064,-0.433 0.088,-0.47 0.122,-0.494C0.156,-0.518 0.207,-0.53 0.274,-0.53C0.336,-0.53 0.381,-0.523 0.411,-0.509C0.441,-0.494 0.462,-0.476 0.474,-0.453C0.487,-0.431 0.493,-0.39 0.493,-0.331L0.491,-0.17C0.491,-0.125 0.493,-0.091 0.498,-0.07C0.502,-0.048 0.51,-0.025 0.522,0L0.387,0C0.383,-0.009 0.379,-0.023 0.374,-0.041C0.371,-0.049 0.37,-0.054 0.369,-0.057C0.345,-0.034 0.32,-0.017 0.293,-0.005C0.267,0.006 0.238,0.012 0.208,0.012C0.155,0.012 0.113,-0.003 0.082,-0.032C0.051,-0.061 0.036,-0.097 0.036,-0.142C0.036,-0.171 0.043,-0.197 0.057,-0.22C0.071,-0.243 0.09,-0.26 0.115,-0.273C0.141,-0.285 0.177,-0.296 0.225,-0.305C0.289,-0.317 0.333,-0.328 0.358,-0.338L0.358,-0.352C0.358,-0.378 0.351,-0.397 0.338,-0.408C0.325,-0.42 0.301,-0.425 0.265,-0.425C0.24,-0.425 0.221,-0.42 0.208,-0.411C0.194,-0.401 0.183,-0.384 0.174,-0.36ZM0.358,-0.249C0.34,-0.243 0.313,-0.236 0.274,-0.228C0.236,-0.22 0.211,-0.212 0.2,-0.204C0.182,-0.191 0.173,-0.175 0.173,-0.156C0.173,-0.137 0.18,-0.12 0.194,-0.106C0.209,-0.092 0.227,-0.085 0.249,-0.085C0.274,-0.085 0.297,-0.093 0.32,-0.109C0.336,-0.122 0.347,-0.137 0.353,-0.155C0.356,-0.167 0.358,-0.189 0.358,-0.222L0.358,-0.249Z" style="fill-opacity:0.5;fill-rule:nonzero;"/>
        </g>
        <g transform="matrix(20,0,0,20,224.502,0)">
            <path d="M0.31,-0.519L0.31,-0.409L0.216,-0.409L0.216,-0.2C0.216,-0.158 0.217,-0.133 0.219,-0.126C0.22,-0.119 0.224,-0.113 0.231,-0.109C0.237,-0.104 0.245,-0.102 0.254,-0.102C0.267,-0.102 0.285,-0.106 0.309,-0.115L0.321,-0.009C0.289,0.005 0.253,0.012 0.212,0.012C0.188,0.012 0.165,0.008 0.146,-0.001C0.126,-0.009 0.111,-0.02 0.102,-0.033C0.093,-0.046 0.086,-0.064 0.083,-0.086C0.08,-0.102 0.078,-0.135 0.078,-0.183L0.078,-0.409L0.015,-0.409L0.015,-0.519L0.078,-0.519L0.078,-0.622L0.216,-0.702L0.216,-0.519L0.31,-0.519Z" style="fill-opacity:0.5;fill-rule:nonzero;"/>
        </g>
        <g transform="matrix(20,0,0,20,231.162,0)">
            <path d="M0.04,-0.267C0.04,-0.312 0.051,-0.356 0.074,-0.399C0.096,-0.442 0.128,-0.474 0.169,-0.497C0.21,-0.519 0.256,-0.53 0.307,-0.53C0.386,-0.53 0.45,-0.505 0.5,-0.454C0.55,-0.403 0.575,-0.339 0.575,-0.261C0.575,-0.182 0.55,-0.117 0.499,-0.066C0.449,-0.014 0.385,0.012 0.308,0.012C0.261,0.012 0.215,0.001 0.172,-0.021C0.129,-0.042 0.096,-0.073 0.074,-0.115C0.051,-0.156 0.04,-0.207 0.04,-0.267ZM0.181,-0.259C0.181,-0.208 0.193,-0.168 0.217,-0.141C0.242,-0.114 0.272,-0.1 0.308,-0.1C0.343,-0.1 0.373,-0.114 0.398,-0.141C0.422,-0.168 0.434,-0.208 0.434,-0.26C0.434,-0.311 0.422,-0.35 0.398,-0.377C0.373,-0.405 0.343,-0.418 0.308,-0.418C0.272,-0.418 0.242,-0.405 0.217,-0.377C0.193,-0.35 0.181,-0.311 0.181,-0.259Z" style="fill-opacity:0.5;fill-rule:nonzero;"/>
        </g>
        <g transform="matrix(20,0,0,20,243.379,0)">
            <path d="M0.203,0L0.066,0L0.066,-0.519L0.193,-0.519L0.193,-0.445C0.215,-0.48 0.235,-0.503 0.252,-0.514C0.27,-0.525 0.289,-0.53 0.312,-0.53C0.343,-0.53 0.373,-0.522 0.402,-0.504L0.359,-0.385C0.336,-0.4 0.315,-0.407 0.295,-0.407C0.276,-0.407 0.259,-0.402 0.246,-0.391C0.233,-0.381 0.222,-0.362 0.215,-0.334C0.207,-0.306 0.203,-0.248 0.203,-0.16L0.203,0Z" style="fill-opacity:0.5;fill-rule:nonzero;"/>
        </g>
        <g transform="matrix(20,0,0,20,256.719,0)">
            <rect x="0.086" y="-0.728" width="0.109" height="0.938" style="fill-opacity:0.5;fill-rule:nonzero;"/>
        </g>
        <g transform="matrix(20,0,0,20,267.871,0)">
            <path d="M0.023,-0.148L0.161,-0.169C0.167,-0.142 0.179,-0.122 0.197,-0.108C0.215,-0.094 0.24,-0.087 0.272,-0.087C0.307,-0.087 0.334,-0.094 0.352,-0.107C0.364,-0.116 0.37,-0.128 0.37,-0.144C0.37,-0.154 0.367,-0.163 0.36,-0.169C0.354,-0.176 0.338,-0.182 0.314,-0.188C0.204,-0.212 0.134,-0.234 0.104,-0.254C0.063,-0.282 0.042,-0.321 0.042,-0.371C0.042,-0.416 0.06,-0.454 0.096,-0.484C0.131,-0.515 0.186,-0.53 0.261,-0.53C0.332,-0.53 0.384,-0.519 0.419,-0.496C0.453,-0.472 0.477,-0.438 0.49,-0.393L0.361,-0.369C0.355,-0.389 0.345,-0.405 0.329,-0.416C0.314,-0.426 0.292,-0.432 0.263,-0.432C0.227,-0.432 0.201,-0.427 0.186,-0.417C0.175,-0.409 0.17,-0.4 0.17,-0.389C0.17,-0.379 0.174,-0.371 0.184,-0.364C0.196,-0.355 0.239,-0.342 0.312,-0.325C0.385,-0.309 0.436,-0.288 0.465,-0.264C0.493,-0.24 0.508,-0.206 0.508,-0.162C0.508,-0.115 0.488,-0.074 0.448,-0.04C0.409,-0.005 0.35,0.012 0.272,0.012C0.201,0.012 0.145,-0.003 0.104,-0.031C0.063,-0.06 0.036,-0.099 0.023,-0.148Z" style="fill-opacity:0.5;fill-rule:nonzero;"/>
        </g>
        <g transform="matrix(20,0,0,20,278.994,0)">
            <path d="M0.31,-0.519L0.31,-0.409L0.216,-0.409L0.216,-0.2C0.216,-0.158 0.217,-0.133 0.219,-0.126C0.22,-0.119 0.224,-0.113 0.231,-0.109C0.237,-0.104 0.245,-0.102 0.254,-0.102C0.267,-0.102 0.285,-0.106 0.309,-0.115L0.321,-0.009C0.289,0.005 0.253,0.012 0.212,0.012C0.188,0.012 0.165,0.008 0.146,-0.001C0.126,-0.009 0.111,-0.02 0.102,-0.033C0.093,-0.046 0.086,-0.064 0.083,-0.086C0.08,-0.102 0.078,-0.135 0.078,-0.183L0.078,-0.409L0.015,-0.409L0.015,-0.519L0.078,-0.519L0.078,-0.622L0.216,-0.702L0.216,-0.519L0.31,-0.519Z" style="fill-opacity:0.5;fill-rule:nonzero;"/>
        </g>
        <g transform="matrix(20,0,0,20,285.654,0)">
            <path d="M0.174,-0.36L0.05,-0.383C0.064,-0.433 0.088,-0.47 0.122,-0.494C0.156,-0.518 0.207,-0.53 0.274,-0.53C0.336,-0.53 0.381,-0.523 0.411,-0.509C0.441,-0.494 0.462,-0.476 0.474,-0.453C0.487,-0.431 0.493,-0.39 0.493,-0.331L0.491,-0.17C0.491,-0.125 0.493,-0.091 0.498,-0.07C0.502,-0.048 0.51,-0.025 0.522,0L0.387,0C0.383,-0.009 0.379,-0.023 0.374,-0.041C0.371,-0.049 0.37,-0.054 0.369,-0.057C0.345,-0.034 0.32,-0.017 0.293,-0.005C0.267,0.006 0.238,0.012 0.208,0.012C0.155,0.012 0.113,-0.003 0.082,-0.032C0.051,-0.061 0.036,-0.097 0.036,-0.142C0.036,-0.171 0.043,-0.197 0.057,-0.22C0.071,-0.243 0.09,-0.26 0.115,-0.273C0.141,-0.285 0.177,-0.296 0.225,-0.305C0.289,-0.317 0.333,-0.328 0.358,-0.338L0.358,-0.352C0.358,-0.378 0.351,-0.397 0.338,-0.408C0.325,-0.42 0.301,-0.425 0.265,-0.425C0.24,-0.425 0.221,-0.42 0.208,-0.411C0.194,-0.401 0.183,-0.384 0.174,-0.36ZM0.358,-0.249C0.34,-0.243 0.313,-0.236 0.274,-0.228C0.236,-0.22 0.211,-0.212 0.2,-0.204C0.182,-0.191 0.173,-0.175 0.173,-0.156C0.173,-0.137 0.18,-0.12 0.194,-0.106C0.209,-0.092 0.227,-0.085 0.249,-0.085C0.274,-0.085 0.297,-0.093 0.32,-0.109C0.336,-0.122 0.347,-0.137 0.353,-0.155C0.356,-0.167 0.358,-0.189 0.358,-0.222L0.358,-0.249Z" style="fill-opacity:0.5;fill-rule:nonzero;"/>
        </g>
        <g transform="matrix(20,0,0,20,296.777,0)">
            <path d="M0.31,-0.519L0.31,-0.409L0.216,-0.409L0.216,-0.2C0.216,-0.158 0.217,-0.133 0.219,-0.126C0.22,-0.119 0.224,-0.113 0.231,-0.109C0.237,-0.104 0.245,-0.102 0.254,-0.102C0.267,-0.102 0.285,-0.106 0.309,-0.115L0.321,-0.009C0.289,0.005 0.253,0.012 0.212,0.012C0.188,0.012 0.165,0.008 0.146,-0.001C0.126,-0.009 0.111,-0.02 0.102,-0.033C0.093,-0.046 0.086,-0.064 0.083,-0.086C0.08,-0.102 0.078,-0.135 0.078,-0.183L0.078,-0.409L0.015,-0.409L0.015,-0.519L0.078,-0.519L0.078,-0.622L0.216,-0.702L0.216,-0.519L0.31,-0.519Z" style="fill-opacity:0.5;fill-rule:nonzero;"/>
        </g>
        <g transform="matrix(20,0,0,20,303.438,0)">
            <path d="M0.072,-0.589L0.072,-0.716L0.209,-0.716L0.209,-0.589L0.072,-0.589ZM0.072,0L0.072,-0.519L0.209,-0.519L0.209,0L0.072,0Z" style="fill-opacity:0.5;fill-rule:nonzero;"/>
        </g>
        <g transform="matrix(20,0,0,20,308.994,0)">
            <path d="M0.524,-0.365L0.389,-0.341C0.384,-0.368 0.374,-0.388 0.358,-0.402C0.342,-0.416 0.321,-0.422 0.295,-0.422C0.261,-0.422 0.233,-0.411 0.213,-0.387C0.193,-0.363 0.183,-0.324 0.183,-0.269C0.183,-0.207 0.193,-0.164 0.214,-0.138C0.234,-0.113 0.262,-0.1 0.297,-0.1C0.323,-0.1 0.344,-0.108 0.361,-0.122C0.377,-0.137 0.389,-0.163 0.396,-0.199L0.531,-0.176C0.517,-0.114 0.49,-0.067 0.45,-0.036C0.41,-0.004 0.357,0.012 0.291,0.012C0.215,0.012 0.154,-0.012 0.109,-0.06C0.064,-0.108 0.042,-0.174 0.042,-0.259C0.042,-0.344 0.064,-0.411 0.109,-0.459C0.155,-0.506 0.216,-0.53 0.293,-0.53C0.356,-0.53 0.406,-0.517 0.444,-0.49C0.481,-0.462 0.508,-0.421 0.524,-0.365Z" style="fill-opacity:0.5;fill-rule:nonzero;"/>
        </g>
        <g transform="matrix(20,0,0,20,325.674,0)">
            <path d="M0.023,-0.148L0.161,-0.169C0.167,-0.142 0.179,-0.122 0.197,-0.108C0.215,-0.094 0.24,-0.087 0.272,-0.087C0.307,-0.087 0.334,-0.094 0.352,-0.107C0.364,-0.116 0.37,-0.128 0.37,-0.144C0.37,-0.154 0.367,-0.163 0.36,-0.169C0.354,-0.176 0.338,-0.182 0.314,-0.188C0.204,-0.212 0.134,-0.234 0.104,-0.254C0.063,-0.282 0.042,-0.321 0.042,-0.371C0.042,-0.416 0.06,-0.454 0.096,-0.484C0.131,-0.515 0.186,-0.53 0.261,-0.53C0.332,-0.53 0.384,-0.519 0.419,-0.496C0.453,-0.472 0.477,-0.438 0.49,-0.393L0.361,-0.369C0.355,-0.389 0.345,-0.405 0.329,-0.416C0.314,-0.426 0.292,-0.432 0.263,-0.432C0.227,-0.432 0.201,-0.427 0.186,-0.417C0.175,-0.409 0.17,-0.4 0.17,-0.389C0.17,-0.379 0.174,-0.371 0.184,-0.364C0.196,-0.355 0.239,-0.342 0.312,-0.325C0.385,-0.309 0.436,-0.288 0.465,-0.264C0.493,-0.24 0.508,-0.206 0.508,-0.162C0.508,-0.115 0.488,-0.074 0.448,-0.04C0.409,-0.005 0.35,0.012 0.272,0.012C0.201,0.012 0.145,-0.003 0.104,-0.031C0.063,-0.06 0.036,-0.099 0.023,-0.148Z" style="fill-opacity:0.5;fill-rule:nonzero;"/>
        </g>
        <g transform="matrix(20,0,0,20,336.797,0)">
            <path d="M0.072,-0.589L0.072,-0.716L0.209,-0.716L0.209,-0.589L0.072,-0.589ZM0.072,0L0.072,-0.519L0.209,-0.519L0.209,0L0.072,0Z" style="fill-opacity:0.5;fill-rule:nonzero;"/>
        </g>
        <g transform="matrix(20,0,0,20,342.354,0)">
            <path d="M0.31,-0.519L0.31,-0.409L0.216,-0.409L0.216,-0.2C0.216,-0.158 0.217,-0.133 0.219,-0.126C0.22,-0.119 0.224,-0.113 0.231,-0.109C0.237,-0.104 0.245,-0.102 0.254,-0.102C0.267,-0.102 0.285,-0.106 0.309,-0.115L0.321,-0.009C0.289,0.005 0.253,0.012 0.212,0.012C0.188,0.012 0.165,0.008 0.146,-0.001C0.126,-0.009 0.111,-0.02 0.102,-0.033C0.093,-0.046 0.086,-0.064 0.083,-0.086C0.08,-0.102 0.078,-0.135 0.078,-0.183L0.078,-0.409L0.015,-0.409L0.015,-0.519L0.078,-0.519L0.078,-0.622L0.216,-0.702L0.216,-0.519L0.31,-0.519Z" style="fill-opacity:0.5;fill-rule:nonzero;"/>
        </g>
        <g transform="matrix(20,0,0,20,349.014,0)">
            <path d="M0.372,-0.165L0.509,-0.142C0.491,-0.092 0.463,-0.054 0.426,-0.028C0.388,-0.001 0.34,0.012 0.283,0.012C0.193,0.012 0.126,-0.018 0.083,-0.077C0.049,-0.124 0.032,-0.183 0.032,-0.255C0.032,-0.341 0.054,-0.409 0.099,-0.457C0.144,-0.506 0.201,-0.53 0.27,-0.53C0.347,-0.53 0.408,-0.505 0.452,-0.454C0.497,-0.403 0.518,-0.325 0.516,-0.22L0.172,-0.22C0.173,-0.179 0.184,-0.147 0.206,-0.125C0.227,-0.102 0.253,-0.091 0.285,-0.091C0.306,-0.091 0.324,-0.097 0.339,-0.108C0.354,-0.12 0.365,-0.139 0.372,-0.165ZM0.38,-0.304C0.379,-0.343 0.369,-0.374 0.349,-0.394C0.33,-0.415 0.306,-0.425 0.278,-0.425C0.248,-0.425 0.223,-0.414 0.204,-0.393C0.184,-0.371 0.174,-0.341 0.175,-0.304L0.38,-0.304Z" style="fill-opacity:0.5;fill-rule:nonzero;"/>
        </g>
        <g transform="matrix(20,0,0,20,365.693,0)">
            <path d="M0.066,0L0.066,-0.716L0.203,-0.716L0.203,-0.458C0.245,-0.506 0.296,-0.53 0.354,-0.53C0.417,-0.53 0.469,-0.507 0.51,-0.462C0.552,-0.416 0.572,-0.35 0.572,-0.265C0.572,-0.176 0.551,-0.108 0.509,-0.06C0.467,-0.012 0.416,0.012 0.355,0.012C0.326,0.012 0.297,0.004 0.268,-0.01C0.239,-0.025 0.214,-0.047 0.193,-0.076L0.193,0L0.066,0ZM0.202,-0.271C0.202,-0.217 0.211,-0.177 0.228,-0.151C0.251,-0.115 0.283,-0.097 0.322,-0.097C0.353,-0.097 0.378,-0.11 0.4,-0.135C0.421,-0.161 0.432,-0.202 0.432,-0.258C0.432,-0.317 0.421,-0.36 0.399,-0.386C0.378,-0.412 0.35,-0.425 0.317,-0.425C0.284,-0.425 0.257,-0.413 0.235,-0.387C0.213,-0.361 0.202,-0.323 0.202,-0.271Z" style="fill-opacity:0.5;fill-rule:nonzero;"/>
        </g>
        <g transform="matrix(20,0,0,20,377.91,0)">
            <path d="M0.413,0L0.413,-0.078C0.394,-0.05 0.369,-0.028 0.339,-0.012C0.308,0.004 0.275,0.012 0.241,0.012C0.206,0.012 0.175,0.004 0.147,-0.011C0.12,-0.027 0.1,-0.048 0.087,-0.076C0.075,-0.103 0.069,-0.142 0.069,-0.19L0.069,-0.519L0.206,-0.519L0.206,-0.28C0.206,-0.207 0.209,-0.163 0.214,-0.146C0.219,-0.13 0.228,-0.117 0.241,-0.107C0.255,-0.098 0.271,-0.093 0.292,-0.093C0.315,-0.093 0.336,-0.099 0.355,-0.112C0.374,-0.125 0.386,-0.141 0.393,-0.16C0.4,-0.179 0.403,-0.226 0.403,-0.3L0.403,-0.519L0.541,-0.519L0.541,0L0.413,0Z" style="fill-opacity:0.5;fill-rule:nonzero;"/>
        </g>
        <g transform="matrix(20,0,0,20,390.127,0)">
            <path d="M0.072,-0.589L0.072,-0.716L0.209,-0.716L0.209,-0.589L0.072,-0.589ZM0.072,0L0.072,-0.519L0.209,-0.519L0.209,0L0.072,0Z" style="fill-opacity:0.5;fill-rule:nonzero;"/>
        </g>
        <g transform="matrix(20,0,0,20,395.684,0)">
            <rect x="0.072" y="-0.716" width="0.137" height="0.716" style="fill-opacity:0.5;fill-rule:nonzero;"/>
        </g>
        <g transform="matrix(20,0,0,20,401.24,0)">
            <path d="M0.547,0L0.42,0L0.42,-0.076C0.399,-0.047 0.374,-0.024 0.345,-0.01C0.316,0.004 0.287,0.012 0.258,0.012C0.198,0.012 0.147,-0.012 0.105,-0.06C0.062,-0.108 0.041,-0.175 0.041,-0.261C0.041,-0.349 0.062,-0.416 0.103,-0.462C0.144,-0.507 0.197,-0.53 0.26,-0.53C0.318,-0.53 0.368,-0.506 0.41,-0.458L0.41,-0.716L0.547,-0.716L0.547,0ZM0.181,-0.271C0.181,-0.215 0.189,-0.175 0.204,-0.15C0.226,-0.115 0.257,-0.097 0.297,-0.097C0.328,-0.097 0.355,-0.11 0.377,-0.137C0.4,-0.164 0.411,-0.204 0.411,-0.257C0.411,-0.317 0.4,-0.36 0.378,-0.386C0.357,-0.412 0.329,-0.425 0.296,-0.425C0.263,-0.425 0.236,-0.412 0.214,-0.386C0.192,-0.361 0.181,-0.322 0.181,-0.271Z" style="fill-opacity:0.5;fill-rule:nonzero;"/>
        </g>
        <g transform="matrix(20,0,0,20,413.457,0)">
            <path d="M0.372,-0.165L0.509,-0.142C0.491,-0.092 0.463,-0.054 0.426,-0.028C0.388,-0.001 0.34,0.012 0.283,0.012C0.193,0.012 0.126,-0.018 0.083,-0.077C0.049,-0.124 0.032,-0.183 0.032,-0.255C0.032,-0.341 0.054,-0.409 0.099,-0.457C0.144,-0.506 0.201,-0.53 0.27,-0.53C0.347,-0.53 0.408,-0.505 0.452,-0.454C0.497,-0.403 0.518,-0.325 0.516,-0.22L0.172,-0.22C0.173,-0.179 0.184,-0.147 0.206,-0.125C0.227,-0.102 0.253,-0.091 0.285,-0.091C0.306,-0.091 0.324,-0.097 0.339,-0.108C0.354,-0.12 0.365,-0.139 0.372,-0.165ZM0.38,-0.304C0.379,-0.343 0.369,-0.374 0.349,-0.394C0.33,-0.415 0.306,-0.425 0.278,-0.425C0.248,-0.425 0.223,-0.414 0.204,-0.393C0.184,-0.371 0.174,-0.341 0.175,-0.304L0.38,-0.304Z" style="fill-opacity:0.5;fill-rule:nonzero;"/>
        </g>
        <g transform="matrix(20,0,0,20,424.58,0)">
            <path d="M0.203,0L0.066,0L0.066,-0.519L0.193,-0.519L0.193,-0.445C0.215,-0.48 0.235,-0.503 0.252,-0.514C0.27,-0.525 0.289,-0.53 0.312,-0.53C0.343,-0.53 0.373,-0.522 0.402,-0.504L0.359,-0.385C0.336,-0.4 0.315,-0.407 0.295,-0.407C0.276,-0.407 0.259,-0.402 0.246,-0.391C0.233,-0.381 0.222,-0.362 0.215,-0.334C0.207,-0.306 0.203,-0.248 0.203,-0.16L0.203,0Z" style="fill-opacity:0.5;fill-rule:nonzero;"/>
        </g>
    </g>
    <g id="CodeEngine--curves-" serif:id="CodeEngine (curves)" transform="matrix(0.0984819,0,0,0.0986623,-136.567,-81.1248)">
        <g transform="matrix(630,0,0,700,3594.59,1884.04)">
            <path d="M0.588,-0.251L0.683,-0.227C0.663,-0.149 0.627,-0.09 0.575,-0.049C0.524,-0.008 0.461,0.012 0.386,0.012C0.309,0.012 0.246,-0.003 0.198,-0.035C0.15,-0.066 0.113,-0.112 0.088,-0.171C0.062,-0.231 0.05,-0.295 0.05,-0.363C0.05,-0.438 0.064,-0.503 0.093,-0.558C0.121,-0.614 0.162,-0.656 0.214,-0.685C0.267,-0.714 0.325,-0.728 0.388,-0.728C0.459,-0.728 0.52,-0.71 0.568,-0.673C0.617,-0.637 0.651,-0.586 0.67,-0.52L0.577,-0.498C0.561,-0.55 0.536,-0.588 0.505,-0.611C0.473,-0.635 0.434,-0.647 0.386,-0.647C0.331,-0.647 0.285,-0.634 0.248,-0.607C0.211,-0.581 0.185,-0.546 0.17,-0.501C0.155,-0.457 0.147,-0.411 0.147,-0.364C0.147,-0.303 0.156,-0.25 0.174,-0.204C0.192,-0.159 0.219,-0.125 0.257,-0.103C0.294,-0.08 0.335,-0.069 0.378,-0.069C0.431,-0.069 0.476,-0.084 0.513,-0.115C0.55,-0.145 0.575,-0.191 0.588,-0.251Z" style="fill:rgb(22,41,72);fill-rule:nonzero;"/>
        </g>
        <g transform="matrix(630,0,0,700,4181.86,1884.04)">
            <path d="M0.048,-0.349C0.048,-0.467 0.08,-0.56 0.144,-0.628C0.208,-0.695 0.29,-0.729 0.391,-0.729C0.457,-0.729 0.517,-0.713 0.57,-0.681C0.623,-0.65 0.663,-0.606 0.691,-0.549C0.719,-0.493 0.733,-0.429 0.733,-0.357C0.733,-0.284 0.718,-0.219 0.689,-0.162C0.66,-0.105 0.618,-0.061 0.564,-0.032C0.511,-0.003 0.453,0.012 0.391,0.012C0.323,0.012 0.263,-0.004 0.21,-0.037C0.157,-0.069 0.117,-0.114 0.089,-0.17C0.062,-0.226 0.048,-0.286 0.048,-0.349ZM0.146,-0.347C0.146,-0.261 0.169,-0.193 0.216,-0.143C0.262,-0.094 0.32,-0.069 0.39,-0.069C0.461,-0.069 0.52,-0.094 0.566,-0.144C0.612,-0.194 0.635,-0.265 0.635,-0.357C0.635,-0.416 0.625,-0.467 0.606,-0.51C0.586,-0.553 0.557,-0.587 0.519,-0.611C0.481,-0.635 0.439,-0.647 0.392,-0.647C0.325,-0.647 0.267,-0.624 0.219,-0.578C0.17,-0.532 0.146,-0.455 0.146,-0.347Z" style="fill:rgb(22,41,72);fill-rule:nonzero;"/>
        </g>
        <g transform="matrix(630,0,0,700,4804.19,1884.04)">
            <path d="M0.077,0L0.077,-0.716L0.324,-0.716C0.379,-0.716 0.422,-0.712 0.451,-0.706C0.492,-0.696 0.527,-0.679 0.556,-0.654C0.594,-0.622 0.622,-0.582 0.641,-0.532C0.66,-0.482 0.669,-0.426 0.669,-0.362C0.669,-0.307 0.663,-0.259 0.65,-0.217C0.637,-0.175 0.621,-0.141 0.601,-0.113C0.581,-0.086 0.559,-0.064 0.536,-0.048C0.512,-0.032 0.484,-0.02 0.45,-0.012C0.417,-0.004 0.379,0 0.335,0L0.077,0ZM0.172,-0.084L0.325,-0.084C0.372,-0.084 0.409,-0.089 0.436,-0.098C0.463,-0.106 0.484,-0.119 0.5,-0.135C0.522,-0.157 0.54,-0.187 0.552,-0.225C0.565,-0.263 0.571,-0.309 0.571,-0.363C0.571,-0.438 0.559,-0.496 0.534,-0.536C0.51,-0.576 0.48,-0.603 0.445,-0.617C0.419,-0.626 0.379,-0.631 0.322,-0.631L0.172,-0.631L0.172,-0.084Z" style="fill:rgb(22,41,72);fill-rule:nonzero;"/>
        </g>
        <g transform="matrix(700,0,0,700,5391.46,1884.04)">
            <path d="M0.079,0L0.079,-0.716L0.597,-0.716L0.597,-0.631L0.174,-0.631L0.174,-0.412L0.57,-0.412L0.57,-0.328L0.174,-0.328L0.174,-0.084L0.613,-0.084L0.613,0L0.079,0Z" style="fill:rgb(22,41,72);fill-rule:nonzero;"/>
        </g>
        <g transform="matrix(700,0,0,700,6138.35,1884.04)">
            <path d="M0.073,0L0.073,-0.716L0.604,-0.716L0.604,-0.595L0.217,-0.595L0.217,-0.436L0.577,-0.436L0.577,-0.315L0.217,-0.315L0.217,-0.121L0.617,-0.121L0.617,0L0.073,0Z" style="fill:rgb(22,41,72);fill-rule:nonzero;"/>
        </g>
        <g transform="matrix(630,0,0,700,6710.25,1884.04)">
            <path d="M0.074,0L0.074,-0.716L0.215,-0.716L0.508,-0.238L0.508,-0.716L0.642,-0.716L0.642,0L0.497,0L0.208,-0.467L0.208,0L0.074,0Z" style="fill:rgb(22,41,72);fill-rule:nonzero;"/>
        </g>
        <g transform="matrix(630,0,0,700,7259.72,1884.04)">
            <path d="M0.406,-0.263L0.406,-0.384L0.717,-0.384L0.717,-0.099C0.687,-0.069 0.643,-0.044 0.586,-0.021C0.528,0.001 0.47,0.012 0.411,0.012C0.336,0.012 0.271,-0.003 0.215,-0.035C0.16,-0.066 0.118,-0.111 0.09,-0.17C0.062,-0.228 0.048,-0.292 0.048,-0.36C0.048,-0.435 0.063,-0.501 0.095,-0.559C0.126,-0.617 0.172,-0.661 0.232,-0.692C0.278,-0.716 0.335,-0.728 0.403,-0.728C0.492,-0.728 0.562,-0.709 0.612,-0.672C0.662,-0.635 0.694,-0.583 0.708,-0.518L0.564,-0.491C0.554,-0.526 0.535,-0.554 0.508,-0.574C0.48,-0.594 0.445,-0.604 0.403,-0.604C0.34,-0.604 0.29,-0.584 0.253,-0.544C0.215,-0.504 0.197,-0.445 0.197,-0.366C0.197,-0.281 0.216,-0.218 0.253,-0.175C0.291,-0.133 0.341,-0.111 0.402,-0.111C0.432,-0.111 0.462,-0.117 0.493,-0.129C0.523,-0.141 0.549,-0.155 0.571,-0.172L0.571,-0.263L0.406,-0.263Z" style="fill:rgb(22,41,72);fill-rule:nonzero;"/>
        </g>
        <g transform="matrix(700,0,0,700,7844.25,1884.04)">
            <rect x="0.068" y="-0.716" width="0.145" height="0.716" style="fill:rgb(22,41,72);"/>
        </g>
        <g transform="matrix(630,0,0,700,8143.73,1884.04)">
            <path d="M0.074,0L0.074,-0.716L0.215,-0.716L0.508,-0.238L0.508,-0.716L0.642,-0.716L0.642,0L0.497,0L0.208,-0.467L0.208,0L0.074,0Z" style="fill:rgb(22,41,72);fill-rule:nonzero;"/>
        </g>
        <g transform="matrix(700,0,0,700,8693.2,1884.04)">
            <path d="M0.073,0L0.073,-0.716L0.604,-0.716L0.604,-0.595L0.217,-0.595L0.217,-0.436L0.577,-0.436L0.577,-0.315L0.217,-0.315L0.217,-0.121L0.617,-0.121L0.617,0L0.073,0Z" style="fill:rgb(22,41,72);fill-rule:nonzero;"/>
        </g>
    </g>
</svg>
